<svg width="16" height="13" viewBox="0 0 16 13" fill="none" xmlns="http://www.w3.org/2000/svg">
<path d="M9.94199 2.57996C9.59254 2.52681 9.2716 2.7104 9.20507 2.99122C9.13855 3.27204 9.36225 3.54621 9.7022 3.60117C10.7257 3.76543 11.516 4.41765 11.7163 5.26312C11.7733 5.5065 12.0336 5.68405 12.3333 5.68405C12.3735 5.68405 12.4137 5.68103 12.4547 5.67499C12.7946 5.61883 13.0183 5.34526 12.9518 5.06383C12.6528 3.80106 11.4721 2.82575 9.94199 2.57996Z" fill="#BAC0CB"/>
<path d="M9.89623 0.475495C9.73247 0.45617 9.56798 0.496028 9.43712 0.581783C9.30261 0.668746 9.21854 0.794359 9.20026 0.93507C9.16151 1.21951 9.41081 1.47678 9.75587 1.50878C12.1355 1.7274 13.9851 3.25348 14.2526 5.2186C14.2885 5.4819 14.5568 5.68059 14.877 5.68059C14.9011 5.68059 14.9245 5.67938 14.9486 5.67696C15.116 5.66187 15.2652 5.59362 15.3704 5.48492C15.475 5.37622 15.5225 5.24094 15.5035 5.10265C15.1701 2.65078 12.8651 0.747858 9.89623 0.475495Z" fill="#BAC0CB"/>
<path fill-rule="evenodd" clip-rule="evenodd" d="M7.45613 7.10175C10.3844 9.51177 11.0487 6.72364 12.9132 8.25747C14.7106 9.73682 15.7437 10.0332 13.4663 11.9075C13.1811 12.0963 11.3686 14.3668 4.99908 9.12459C-1.37126 3.88167 1.38523 2.38805 1.61454 2.15328C3.89743 0.273769 4.25126 1.12921 6.04873 2.60856C7.91318 4.14304 4.52785 4.69172 7.45613 7.10175Z" fill="white"/>
</svg>
