<svg width="166" height="129" viewBox="0 0 166 129" fill="none" xmlns="http://www.w3.org/2000/svg">
<mask id="mask0_2099_958" style="mask-type:alpha" maskUnits="userSpaceOnUse" x="0" y="0" width="166" height="121">
<rect width="166" height="121" rx="15" fill="#1F1F25"/>
</mask>
<g mask="url(#mask0_2099_958)">
<g filter="url(#filter0_d_2099_958)">
<path d="M125.839 14.1201C119.8 10.1429 112.541 8.02084 104.833 7.78949C97.1359 7.57178 88.9212 9.32049 81.2021 13.4532C71.675 18.5246 65.0573 25.162 60.8739 31.6869C56.6605 38.2127 56.1465 43.4595 56.1465 43.4595C55.5935 44.846 55.6858 46.3829 56.4001 47.66C57.1188 48.937 58.3809 49.8211 59.8499 50.0708L71.5899 52.0742C73.9825 52.4821 76.3747 51.138 77.2673 48.8854C77.2673 48.8854 77.3296 46.5543 79.5743 43.0767C81.843 39.6012 85.2464 35.958 91.4574 32.6082C96.8774 29.6917 102.66 29.1231 107.326 30.0788C109.642 30.5498 111.638 31.3976 113.102 32.3667C114.577 33.3439 115.49 34.3999 115.975 35.3138C117.609 38.4037 118.071 40.7495 118.1 42.9438C118.107 44.59 117.829 46.2028 117.278 47.918C116.459 50.483 114.966 53.2473 113.126 56.0392C111.292 58.8493 109.165 61.5964 107.147 64.6198C104.85 68.0791 102.769 72.395 102.247 77.4804C101.978 80 102.126 82.6388 102.695 85.2014C103.256 87.7705 104.223 90.2622 105.5 92.6481C106.863 95.1937 107.982 97.2835 107.982 97.2835C109.266 99.6829 112.313 100.555 114.787 99.2305L125.576 93.454C128.049 92.1298 129.013 89.1108 127.728 86.7114C127.728 86.7114 126.609 84.6216 125.247 82.0761C124.754 81.1568 124.545 80.5063 124.447 80.0745C124.324 79.4167 124.349 79.2226 124.458 78.7244C124.581 78.2401 124.916 77.4209 125.706 76.2328C126.852 74.4825 128.816 71.8961 130.936 68.7738C134.095 64.0713 137.758 58.0233 139.475 50.36C140.325 46.5395 140.627 42.3245 140.057 37.9611C139.499 33.5913 138.063 29.1122 135.719 24.7428C133.344 20.3165 129.855 16.7731 125.839 14.1201Z" fill="white" fill-opacity="0.16" shape-rendering="crispEdges"/>
<path d="M125.719 106.677C118.992 110.278 116.372 118.49 119.865 125.014C123.357 131.536 131.643 133.907 138.369 130.306C145.092 126.706 147.711 118.497 144.219 111.975C140.726 105.451 132.441 103.077 125.719 106.677Z" fill="white" fill-opacity="0.16" shape-rendering="crispEdges"/>
</g>
</g>
<defs>
<filter id="filter0_d_2099_958" x="51.7891" y="7.77148" width="97.9766" height="132.216" filterUnits="userSpaceOnUse" color-interpolation-filters="sRGB">
<feFlood flood-opacity="0" result="BackgroundImageFix"/>
<feColorMatrix in="SourceAlpha" type="matrix" values="0 0 0 0 0 0 0 0 0 0 0 0 0 0 0 0 0 0 127 0" result="hardAlpha"/>
<feOffset dy="4"/>
<feGaussianBlur stdDeviation="2"/>
<feComposite in2="hardAlpha" operator="out"/>
<feColorMatrix type="matrix" values="0 0 0 0 0 0 0 0 0 0 0 0 0 0 0 0 0 0 0.25 0"/>
<feBlend mode="normal" in2="BackgroundImageFix" result="effect1_dropShadow_2099_958"/>
<feBlend mode="normal" in="SourceGraphic" in2="effect1_dropShadow_2099_958" result="shape"/>
</filter>
</defs>
</svg>
