<svg width="16" height="13" viewBox="0 0 16 13" fill="none" xmlns="http://www.w3.org/2000/svg">
<path d="M15.3681 7.42555C15.421 7.45003 15.4315 7.50193 15.4337 7.52171L15.4342 7.52959L15.3754 10.6506C15.3754 11.8956 14.2037 12.9109 12.7283 12.9731L12.5846 12.9761H3.7419C2.24777 12.9761 1.02935 11.9998 0.954655 10.7704L0.951027 10.6506L0.899616 7.52959C0.899616 7.52959 0.899616 7.45615 0.965716 7.42555C1.02447 7.39495 1.09791 7.43167 1.10526 7.43779C2.58883 8.25783 4.37352 8.80249 6.24634 9.02891C6.51074 9.05951 6.77514 8.91876 6.84858 8.69845C7.00006 8.228 7.46784 7.90815 8.0401 7.87001L8.15588 7.86617H8.17792C8.80219 7.86617 9.32364 8.19664 9.48522 8.69845C9.55867 8.91876 9.82306 9.05951 10.0875 9.02891C11.9603 8.80249 13.745 8.25783 15.2285 7.43779C15.2285 7.43779 15.2432 7.43167 15.2579 7.42555C15.2873 7.41331 15.3314 7.40719 15.3681 7.42555ZM8.16323 8.74129C7.8872 8.74129 7.65437 8.91613 7.61749 9.13853L7.6124 9.20027V9.98971C7.6124 10.2467 7.86211 10.4487 8.16323 10.4487C8.44599 10.4487 8.67321 10.279 8.70911 10.0527L8.71406 9.98971V9.20027C8.71406 8.94936 8.47169 8.74129 8.16323 8.74129ZM9.11066 0.889648C10.2123 0.889648 11.1157 1.58117 11.2552 2.46853H12.7094C14.2517 2.46853 15.5076 3.515 15.5076 4.80014C15.5076 4.80014 15.4636 5.34418 15.4489 6.1018C15.4474 6.16177 15.4122 6.22052 15.3541 6.25602C15.0009 6.47082 14.6777 6.64829 14.6483 6.66053C13.4292 7.3337 12.0124 7.80736 10.5032 8.04297C10.4047 8.05888 10.3078 8.01665 10.2579 7.94444C9.83482 7.34104 9.04456 6.94815 8.16323 6.94815C7.28778 6.94815 6.49017 7.33676 6.05465 7.94077C6.00398 8.01176 5.9085 8.05276 5.81082 8.03746C4.31403 7.80124 2.89729 7.32819 1.68547 6.66665L0.980404 6.26275C0.921649 6.23215 0.884927 6.17707 0.884927 6.11588C0.862894 5.80377 0.826172 4.80014 0.826172 4.80014C0.826172 3.515 2.08206 2.46853 3.62439 2.46853H5.07124C5.21078 1.58117 6.11414 0.889648 7.2158 0.889648H9.11066ZM9.11066 1.8076H7.2158C6.72373 1.8076 6.3051 2.08911 6.18759 2.46853H10.1389C10.0214 2.08911 9.60273 1.8076 9.11066 1.8076Z" fill="white"/>
</svg>
