<svg width="293" height="248" viewBox="0 0 293 248" fill="none" xmlns="http://www.w3.org/2000/svg">
<path d="M216.904 20.8293C213.946 12.5857 210.86 3.98478 189.083 9.47162C177.39 12.4175 167.472 23.2619 159.263 39.4562C153.077 52.3403 147.769 69.0383 143.442 89.0871C134.6 130.054 130.378 183.149 131.291 234.839L127.679 234.903L127.654 233.344C127.069 196.019 129.142 158.034 133.691 124.395C116.578 106.108 96.9841 91.6094 82.6281 86.6854C48.557 78.6758 39.2524 98.4595 39.2301 116.222C39.2259 119.47 40.3237 122.187 41.4289 124.923C42.5721 127.753 43.7238 130.605 43.6755 134.087C43.6435 136.397 38.4126 141.096 31.6128 147.204C18.2441 159.213 -1.1877 176.67 0.901269 192.124C2.83173 206.407 16.1775 217.417 28.5188 223.407C29.7272 223.993 31.0371 225.07 32.6134 226.366C33.734 227.287 34.9899 228.319 36.4391 229.364L36.5505 229.444C37.6892 230.252 39.5711 231.395 42.1967 232.875L43.0063 233.329C80.1503 254.036 123.772 241.037 137.376 236.204L138.171 235.919L234.163 236.181L234.151 236.106C234.127 235.949 234.087 235.716 234.036 235.415C233.202 230.513 229.283 207.488 238.434 198.357C267.011 169.845 299.055 87.5571 257.527 52.3132C248.35 44.5248 239.202 39.7401 232.177 36.0661C227.911 33.8346 224.427 32.0124 222.194 30.1751C219.445 27.9126 218.187 24.4046 216.904 20.8293Z" fill="#374482" fill-opacity="0.3"/>
<path d="M170.122 243.826C207.751 243.826 238.255 242.569 238.255 241.018C238.255 239.468 207.751 238.211 170.122 238.211C132.493 238.211 101.988 239.468 101.988 241.018C101.988 242.569 132.493 243.826 170.122 243.826Z" fill="#4E5567"/>
<path opacity="0.5" d="M50.2507 239.095C74.1373 239.095 93.5013 237.541 93.5013 235.625C93.5013 233.708 74.1373 232.155 50.2507 232.155C26.364 232.155 7 233.708 7 235.625C7 237.541 26.364 239.095 50.2507 239.095Z" fill="#374482" fill-opacity="0.3"/>
<path d="M242.38 75.8276L240.861 78.5979H243.892L242.38 75.8276Z" fill="#E7CCA8"/>
<path d="M242.38 80.9111L240.861 83.6814H243.892L242.38 80.9111Z" fill="#E7CCA8"/>
<path d="M245.523 77.9126L244.116 80.9112H246.924L245.523 77.9126Z" fill="#E7CCA8"/>
<path d="M17.519 93L16 95.7776H19.0311L17.519 93Z" fill="#374482" fill-opacity="0.3"/>
<path d="M17.519 98.084L16 100.854H19.0311L17.519 98.084Z" fill="#374482" fill-opacity="0.3"/>
<path d="M20.6615 95.085L19.2539 98.0836H22.062L20.6615 95.085Z" fill="#374482" fill-opacity="0.3"/>
<path d="M239.349 198.528L237.837 201.299H240.862L239.349 198.528Z" fill="#E7CCA8"/>
<path d="M239.349 203.605L237.837 206.383H240.862L239.349 203.605Z" fill="#E7CCA8"/>
<path d="M242.492 200.606L241.091 203.605H243.892L242.492 200.606Z" fill="#E7CCA8"/>
<path d="M37.0742 46.4458H33.186V228.235H37.0742V46.4458Z" fill="#FEE6C6"/>
<path d="M54.9679 234.873H15.2988C15.2988 230.386 24.1831 226.754 35.1369 226.754C46.0906 226.754 54.9679 230.386 54.9679 234.873Z" fill="#FEE6C6"/>
<path d="M62.417 48.9432H7.84326L8.85363 45.2005L9.0557 44.4637L10.8883 37.6855L11.0904 36.9487L21.0825 0L50.5713 0L59.5113 36.9487L59.6925 37.6855L61.33 44.4637L61.5112 45.2005L62.417 48.9432Z" fill="#374482" fill-opacity="0.3"/>
<path d="M11.4249 39.3438L9.56445 42.7476H13.2784L11.4249 39.3438Z" fill="#E5CAA6"/>
<path d="M15.6334 42.7476L13.7729 39.3438H17.4939L15.6334 42.7476Z" fill="#E5CAA6"/>
<path d="M19.3476 39.3438L17.4941 42.7476H21.2081L19.3476 39.3438Z" fill="#E5CAA6"/>
<path d="M23.5631 42.7476L21.7026 39.3438H25.4166L23.5631 42.7476Z" fill="#E5CAA6"/>
<path d="M27.277 39.3438L25.4165 42.7476H29.1305L27.277 39.3438Z" fill="#E5CAA6"/>
<path d="M31.486 42.7476L29.6255 39.3438H33.3464L31.486 42.7476Z" fill="#E5CAA6"/>
<path d="M35.1997 39.3438L33.3462 42.7476H37.0602L35.1997 39.3438Z" fill="#E5CAA6"/>
<path d="M39.4082 42.7476L37.5547 39.3438H41.2687L39.4082 42.7476Z" fill="#E5CAA6"/>
<path d="M43.1295 39.3438L41.269 42.7476H44.983L43.1295 39.3438Z" fill="#E5CAA6"/>
<path d="M47.338 42.7476L45.4775 39.3438H49.1915L47.338 42.7476Z" fill="#E5CAA6"/>
<path d="M51.0524 39.3438L49.1919 42.7476H52.9128L51.0524 39.3438Z" fill="#E5CAA6"/>
<path d="M55.2607 42.7476L53.4072 39.3438H57.1212L55.2607 42.7476Z" fill="#E5CAA6"/>
<path d="M58.9746 39.3438L57.1211 42.7476H60.8351L58.9746 39.3438Z" fill="#E5CAA6"/>
<path d="M59.6924 37.686H10.8882L11.0903 36.9492H59.5112L59.6924 37.686Z" fill="#E5CAA6"/>
<path d="M61.511 45.2011H8.85352L9.05559 44.4644H61.3299L61.511 45.2011Z" fill="#E5CAA6"/>
<path d="M68.5765 156.783C69.998 150.963 73.057 145.761 76.1996 140.751C78.9868 136.301 81.9064 131.873 85.5855 128.219C89.2647 124.557 93.8008 121.676 98.79 120.866C97.5706 125.021 96.3511 129.176 95.1317 133.332C93.9123 137.487 92.6511 141.731 90.2471 145.26C87.7317 148.944 84.0874 151.64 80.1992 153.571C76.3041 155.501 72.1372 156.717 67.9912 157.925" fill="#66A986"/>
<path d="M68.8347 156.858C70.9321 148.982 75.4892 141.82 80.0881 135.315C82.4642 131.948 85.0772 128.78 88.2407 126.223C89.7388 125.007 97.3828 119.651 98.1423 122.178C98.4768 123.298 96.6233 127.343 96.3097 128.411C95.7244 130.408 95.153 132.404 94.5538 134.394C93.4319 138.129 92.2125 141.909 90.0315 145.121C84.903 152.643 75.956 155.318 67.9289 157.661C67.6083 157.756 67.7407 158.287 68.0682 158.191C75.9142 155.9 84.4292 153.321 89.7876 146.351C95.0764 139.477 96.6302 129.177 99.0482 120.94C99.1109 120.727 98.9088 120.565 98.7276 120.601C91.1812 122.06 85.335 127.299 80.7152 133.539C75.6216 140.42 70.5906 148.23 68.333 156.718C68.2354 157.049 68.7371 157.197 68.8347 156.858Z" fill="#66A986"/>
<path d="M60.2146 176.345C65.7194 163.908 71.2172 151.464 76.7219 139.028C77.0076 138.387 76.1018 137.827 75.8161 138.468C70.3113 150.904 64.8136 163.348 59.3088 175.785C59.0301 176.426 59.929 176.986 60.2146 176.345Z" fill="#80B996"/>
<path d="M61.0091 149.578C61.3296 136.545 65.9843 123.371 69.085 110.839C69.1687 110.493 68.667 110.345 68.5833 110.692C65.4686 123.29 60.814 136.471 60.4934 149.578C60.4795 149.932 61.0021 149.932 61.0091 149.578Z" fill="#80B996"/>
<path d="M52.7035 152.305C47.4496 147.369 42.1539 142.381 38.0357 136.354C33.9246 130.328 31.0329 123.1 31.2628 115.673C34.6144 121.295 41.694 123.395 45.185 128.92C46.3347 130.74 47.0245 132.84 47.7004 134.91C49.5957 140.709 51.498 146.514 53.3933 152.313" fill="#66A986"/>
<path d="M52.8847 152.113C47.3729 146.934 41.7706 141.688 37.5828 135.204C35.4994 131.977 33.7922 128.448 32.7191 124.706C32.1617 122.76 31.7854 120.771 31.6042 118.752C31.4509 117.014 30.9632 116.387 32.1826 117.456C33.9107 118.974 35.3949 120.609 37.2484 121.994C39.7917 123.888 42.4814 125.663 44.3976 128.308C46.8712 131.72 47.8746 136.317 49.1916 140.34C50.5085 144.355 51.8185 148.37 53.1355 152.386C53.247 152.717 53.7487 152.577 53.6372 152.238C52.1739 147.774 50.7176 143.316 49.2543 138.851C48.1046 135.33 47.2057 131.447 45.1223 128.375C41.4989 123.026 35.0186 120.992 31.4788 115.525C31.3395 115.304 30.9911 115.378 30.9911 115.665C30.8796 131.476 42.1469 142.749 52.5084 152.496C52.7662 152.739 53.1425 152.349 52.8847 152.113Z" fill="#66A986"/>
<path d="M42.4882 125.213C51.0798 143.713 56.7239 163.54 59.2115 183.985C59.2951 184.678 60.3403 184.692 60.2567 183.985C57.7482 163.341 52.0692 143.345 43.3871 124.653C43.0944 124.012 42.1886 124.572 42.4882 125.213Z" fill="#80B996"/>
<path d="M57.9916 108.635C53.6923 92.6986 53.8177 75.4583 58.3539 59.5884C61.5105 64.3847 63.9284 69.7263 65.4892 75.3257C67.2312 81.5661 67.9071 88.2043 66.8828 94.6215C65.8585 101.039 63.0574 107.22 58.563 111.663" fill="#66A986"/>
<path d="M58.2429 108.562C56.041 100.148 54.9539 91.4767 55.1421 82.7461C55.2466 78.0676 55.6925 73.4039 56.5008 68.7991C56.8492 66.8172 57.2673 64.8501 57.7412 62.8977C58.5564 59.5749 59.1278 61.2178 60.3402 63.4281C68.4023 78.075 70.7644 98.6528 58.3683 111.473C58.1244 111.723 58.4937 112.114 58.7376 111.863C72.4786 97.6508 68.3674 74.7301 58.5704 59.4496C58.4449 59.258 58.1592 59.2802 58.0896 59.5159C53.623 75.5995 53.5046 92.5524 57.7272 108.71C57.8317 109.049 58.3334 108.901 58.2429 108.562Z" fill="#66A986"/>
<path d="M70.1516 152.304C69.0089 144.288 71.4477 136.066 75.3986 129.118C79.3495 122.17 84.7497 116.291 90.1012 110.485C91.4042 121.552 89.1814 133.052 83.8787 142.689C82.4224 145.342 80.6943 147.898 78.3809 149.748C76.0675 151.597 73.0852 152.687 70.2353 152.142" fill="#80B996"/>
<path d="M70.4163 152.304C69.4199 143.927 71.803 135.823 75.942 128.713C78.0464 125.103 80.5549 121.78 83.2097 118.605C84.4152 117.168 85.6555 115.753 86.9097 114.361C87.4463 113.764 87.9758 113.013 88.589 112.512C89.5297 111.745 89.4112 111.208 90.0105 112.327C90.5819 113.381 90.1986 116.078 90.1847 117.278C90.1638 119.135 90.0523 120.992 89.8502 122.841C89.3903 126.908 88.4775 130.945 87.1118 134.784C84.4152 142.38 79.3494 152.967 70.2212 151.87C69.8868 151.833 69.8937 152.385 70.2212 152.422C78.5829 153.432 83.5442 144.878 86.4777 137.864C90.0871 129.251 91.3344 119.82 90.345 110.486C90.3241 110.264 90.0732 110.102 89.899 110.287C79.4051 121.692 67.8312 135.108 69.8798 152.304C69.9356 152.651 70.4582 152.658 70.4163 152.304Z" fill="#80B996"/>
<path d="M62.0262 137.973C61.3781 128.174 63.2456 118.331 66.2976 109.047C69.3496 99.7641 73.5722 90.9745 77.7809 82.207C80.5751 92.2344 81.467 103.013 79.1118 113.166C76.7566 123.318 70.9383 132.764 62.4303 138.083" fill="#80B996"/>
<path d="M62.2915 137.974C61.741 127.873 63.5945 117.949 66.7789 108.459C68.4721 103.412 70.5068 98.4983 72.6878 93.6651C73.733 91.3369 74.82 89.0308 75.914 86.7321C76.0394 86.4669 77.1474 83.5862 77.4121 83.6009C78.2901 83.6377 78.3459 85.4354 78.527 86.2385C82.7427 105.092 78.8824 127.063 62.2985 137.849C62.0128 138.033 62.2776 138.512 62.5632 138.328C80.7638 126.495 83.4534 102.248 78.0393 82.1347C77.9835 81.9137 77.663 81.8474 77.5585 82.0684C69.1759 99.5371 60.6679 117.846 61.7689 137.974C61.7898 138.328 62.3124 138.335 62.2915 137.974Z" fill="#80B996"/>
<path d="M56.3895 102.691C60.5634 128.381 61.295 154.529 58.5984 180.441C58.5217 181.149 59.5739 181.141 59.6436 180.441C62.3472 154.433 61.5807 128.183 57.3999 102.396C57.2814 101.696 56.278 101.991 56.3895 102.691Z" fill="#80B996"/>
<path d="M58.1306 111.067C54.124 107.531 50.633 101.526 49.6923 96.1033C48.7516 90.6807 49.0303 85.1034 49.3509 79.5998C49.6784 74.0962 50.0477 68.541 49.2951 63.0815C53.2042 68.6441 56.4931 74.6929 59.0783 81.066C61.0363 85.8918 62.6041 90.9828 62.7783 96.2286C62.9525 101.474 61.6146 106.926 58.3327 110.868" fill="#80B996"/>
<path d="M58.3197 110.876C51.8395 104.835 49.3519 96.8409 49.317 87.8892C49.3031 83.7412 49.6585 79.608 49.8536 75.4747C49.9511 73.4044 50.0208 71.3341 49.9929 69.2638C49.986 68.667 49.4494 64.4969 49.7978 64.2759C51.0521 63.4802 59.9224 83.9254 60.4171 85.4284C63.1904 93.8201 63.7897 103.42 58.1525 110.677C57.9435 110.95 58.3058 111.34 58.5218 111.068C69.6916 96.6861 58.1177 75.3789 49.5191 62.9497C49.3867 62.7582 48.9965 62.7876 49.0313 63.0897C50.195 72.7339 48.2161 82.3634 48.9338 92.0151C49.4912 99.5374 52.5641 106.257 57.9435 111.267C58.2013 111.502 58.5706 111.112 58.3197 110.876Z" fill="#80B996"/>
<path d="M52.2431 148.9C54.2638 141.392 53.0723 131.158 49.6858 124.218C46.2994 117.285 41.0245 111.546 35.1714 106.786C35.4919 114.787 36.0772 122.899 38.5997 130.451C41.1291 138.01 45.4771 145.297 52.2431 148.9Z" fill="#80B996"/>
<path d="M52.4944 148.974C56.7171 131.874 47.6865 116.792 35.36 106.595C35.1997 106.462 34.9001 106.529 34.914 106.794C35.5551 122.082 37.8964 141.098 52.1112 149.143C52.4108 149.313 52.6686 148.834 52.376 148.664C45.9166 145.01 41.7706 138.519 39.2133 131.409C37.8964 127.748 37.0532 123.909 36.4958 120.041C36.1195 117.418 35.8826 114.781 35.7084 112.136C35.6527 111.274 35.4924 110.323 35.5551 109.461C35.6457 108.209 35.1928 107.848 36.3634 108.135C37.541 108.422 39.4642 110.935 40.3212 111.797C41.5894 113.071 42.8019 114.412 43.9446 115.812C46.4949 118.936 48.7456 122.413 50.2716 126.223C53.0867 133.222 53.8184 141.451 51.9927 148.826C51.9091 149.173 52.4108 149.32 52.4944 148.974Z" fill="#80B996"/>
<path d="M81.7741 207.583C81.7741 220.049 77.1961 230.909 70.4301 236.56H49.094C42.328 230.909 37.75 220.049 37.75 207.583C37.75 195.935 41.7497 185.687 47.791 179.778H71.7262C77.7745 185.687 81.7741 195.928 81.7741 207.583Z" fill="#FEE6C6"/>
<path d="M49.8396 191.809L44.1118 202.307H55.5743L49.8396 191.809Z" stroke="#E6CAA6" stroke-width="0.490832" stroke-miterlimit="10"/>
<path d="M49.8395 194.373L46.2021 201.033H53.4768L49.8395 194.373Z" stroke="#E6CAA6" stroke-width="0.245416" stroke-miterlimit="10"/>
<path d="M58.1172 226.282L51.1909 230.511V222.06L58.1172 226.282Z" stroke="#E6CAA6" stroke-width="0.368124" stroke-miterlimit="10"/>
<path d="M55.8179 226.282L52.3408 228.404V224.16L55.8179 226.282Z" stroke="#E6CAA6" stroke-width="0.245416" stroke-miterlimit="10"/>
<path d="M67.8307 182.864L62.2842 193.024H73.3843L67.8307 182.864Z" stroke="#E6CAA6" stroke-width="0.490832" stroke-miterlimit="10"/>
<path d="M67.831 186.718L65.4409 191.095H70.228L67.831 186.718Z" stroke="#E6CAA6" stroke-width="0.245416" stroke-miterlimit="10"/>
<path d="M67.8312 227.483L61.4624 212.003H74.207L67.8312 227.483Z" stroke="#E6CAA6" stroke-width="0.490832" stroke-miterlimit="10"/>
<path d="M67.831 223.711L63.7896 213.89H71.8795L67.831 223.711Z" stroke="#E6CAA6" stroke-width="0.245416" stroke-miterlimit="10"/>
<path d="M46.7109 214.398C46.7109 213.367 47.5053 212.527 48.4808 212.527C49.4563 212.527 50.2507 213.367 50.2507 214.398C50.2507 215.43 49.4563 216.27 48.4808 216.27C47.5053 216.27 46.7109 215.43 46.7109 214.398Z" stroke="#E6CAA6" stroke-width="0.490832" stroke-miterlimit="10"/>
<path d="M67.8308 204.967C69.4009 204.967 70.6737 203.621 70.6737 201.961C70.6737 200.301 69.4009 198.955 67.8308 198.955C66.2606 198.955 64.9878 200.301 64.9878 201.961C64.9878 203.621 66.2606 204.967 67.8308 204.967Z" stroke="#E6CAA6" stroke-width="0.490832" stroke-miterlimit="10"/>
<path d="M56.3755 187.374C56.9874 187.374 57.4834 186.849 57.4834 186.202C57.4834 185.555 56.9874 185.031 56.3755 185.031C55.7636 185.031 55.2676 185.555 55.2676 186.202C55.2676 186.849 55.7636 187.374 56.3755 187.374Z" stroke="#E6CAA6" stroke-width="0.490832" stroke-miterlimit="10"/>
<g opacity="0.25">
<path opacity="0.25" d="M73.3288 181.517C69.5103 201.461 60.7584 220.337 48.1323 235.691C48.4459 235.986 48.7664 236.288 49.0939 236.56H70.4301C77.196 230.909 81.7741 220.049 81.7741 207.583C81.7741 196.996 78.4712 187.58 73.3288 181.517Z" fill="#FEE6C6"/>
</g>
<path d="M71.691 179.778H47.8325C47.1078 179.778 46.5225 179.159 46.5225 178.393V178.106C46.5225 177.34 47.1078 176.721 47.8325 176.721H71.691C72.4157 176.721 73.001 177.34 73.001 178.106V178.393C73.008 179.159 72.4157 179.778 71.691 179.778Z" fill="#F9D8AC"/>
<path d="M73.2104 146.793C73.8794 144.391 74.7225 142.041 75.6632 139.735C76.5969 137.429 77.67 135.182 78.8197 132.986C79.9904 130.798 81.2446 128.669 82.6243 126.628C83.3211 125.611 84.0249 124.602 84.7565 123.615C85.5091 122.642 86.2546 121.677 87.056 120.749C86.7215 121.264 86.3801 121.78 86.0317 122.281L85.0283 123.828C84.3593 124.86 83.7043 125.899 83.0702 126.945C81.8021 129.052 80.5757 131.174 79.4259 133.347C78.2623 135.513 77.1892 137.731 76.144 139.971C75.1058 142.218 74.1511 144.502 73.2104 146.793Z" fill="#66A986"/>
<path d="M56.4735 104.731C56.0903 102.469 55.7837 100.2 55.491 97.931C55.1914 95.6617 54.9405 93.3851 54.6897 91.1159C54.4597 88.8393 54.2298 86.5627 54.0486 84.2787L53.7838 80.8528C53.7211 79.7108 53.6375 78.5614 53.5957 77.4194C53.7908 78.5467 53.9441 79.6813 54.1253 80.8159L54.5782 84.2198C54.8778 86.489 55.1287 88.7656 55.3795 91.0422C55.6095 93.3188 55.8394 95.5954 56.0206 97.8867C56.2087 100.156 56.3759 102.44 56.4735 104.731Z" fill="#66A986"/>
<path d="M40.1191 117.588C41.3037 119.54 42.3559 121.574 43.3453 123.644C44.3418 125.714 45.2198 127.836 46.042 129.995C46.8433 132.154 47.5819 134.342 48.209 136.567C48.5156 137.679 48.8153 138.799 49.087 139.919C49.3379 141.046 49.5957 142.174 49.7978 143.316L48.7595 140.022C48.4181 138.925 48.0627 137.834 47.7004 136.744C46.9618 134.57 46.2092 132.404 45.4009 130.268C44.6066 128.124 43.7425 126.002 42.8715 123.887C41.9796 121.773 41.0529 119.688 40.1191 117.588Z" fill="#66A986"/>
<path d="M65.1694 128.588C66.2634 125.78 67.3504 122.981 68.3747 120.152C69.399 117.322 70.4094 114.493 71.3153 111.627C72.2768 108.776 73.1339 105.888 73.9701 103C74.3882 101.556 74.7923 100.104 75.1895 98.6454L76.3671 94.269C76.1232 95.7647 75.8166 97.2456 75.517 98.7338C75.1895 100.215 74.8411 101.688 74.4857 103.154C73.7471 106.094 72.8831 108.99 71.9703 111.87C71.0087 114.729 69.9983 117.58 68.8625 120.373C67.7337 123.15 66.5212 125.906 65.1694 128.588Z" fill="#66A986"/>
<path d="M195.73 98.9624H142.961C130.181 98.9624 119.82 109.918 119.82 123.43V183.248H218.878V123.43C218.878 109.918 208.516 98.9624 195.73 98.9624Z" fill="#5C6193"/>
<path d="M207.15 170.082H131.54V183.248H207.15V170.082Z" fill="#4E5567"/>
<path d="M207.15 183.248H125.68V216.712H207.15V183.248Z" fill="#8E97FD"/>
<path d="M213.602 221.67H125.094C122.502 221.67 120.405 219.453 120.405 216.712H218.292C218.292 219.453 216.188 221.67 213.602 221.67Z" fill="#3F414E"/>
<path d="M111.416 108.562C108.58 106.566 106.197 103.722 105.075 100.318C103.953 96.9141 104.204 92.9355 106.106 89.9443C108.009 86.953 111.639 85.17 114.963 85.9731C115.102 81.2284 119.227 77.7729 123.22 75.5995C127.617 73.205 132.209 71.8199 136.703 73.9933C139.204 75.209 141.838 77.1835 143.162 79.7401C144.486 82.2893 145.274 85.1037 146.04 87.9034C149.183 85.9289 153.461 86.231 156.332 88.6255C159.203 91.0199 160.464 95.3521 159.377 99.0433C162.931 97.4519 167.237 96.7446 170.505 98.9181C173.94 101.202 175.125 105.895 175.362 110.183C175.564 113.867 175.215 117.772 173.236 120.807C170.895 124.403 166.749 126.097 162.826 127.46C156.039 129.811 149.05 131.778 141.908 131.999C134.766 132.22 127.408 130.584 121.554 126.259C115.694 121.935 111.562 114.685 111.771 107.133" fill="#4E5567"/>
<path d="M107.674 113.926C104.12 114.125 100.748 116.505 99.2079 119.901C97.668 123.298 98.0164 127.563 100.086 130.621C97.1314 130.665 94.2676 132.522 92.8879 135.285C91.5082 138.048 91.6824 141.591 93.313 144.192C94.6926 146.388 96.9433 147.817 99.2776 148.745C105.751 151.317 113.109 150.447 119.534 147.743C123.227 146.189 126.774 143.986 129.261 140.715C131.749 137.444 133.045 132.971 131.972 128.927C131.219 126.105 129.4 123.71 127.254 121.868C125.101 120.026 122.614 118.678 120.14 117.374C115.876 115.127 111.409 112.902 106.643 112.813" fill="#3F4553"/>
<path d="M128.613 163.415H108.099C101.626 163.415 96.3789 157.867 96.3789 151.022C96.3789 144.178 101.626 138.63 108.099 138.63H124.356C126.711 138.63 128.62 140.649 128.62 143.139V163.415H128.613Z" fill="#8E97FD"/>
<path d="M131.54 216.712H117.889C113.13 216.712 109.27 212.631 109.27 207.598V138.623H122.92C127.68 138.623 131.54 142.704 131.54 147.736V216.712Z" fill="#8E97FD"/>
<path d="M133.951 76.8963C135.804 76.4321 137.895 76.7858 139.539 77.9793C140.347 78.5761 141.058 79.3497 141.511 80.2707C141.783 80.7054 141.922 81.2064 142.096 81.6779C142.229 82.1642 142.319 82.6725 142.396 83.1588C142.166 82.7094 142.02 82.2378 141.783 81.8105C141.539 81.3906 141.344 80.9485 141.051 80.5727C140.542 79.777 139.88 79.114 139.142 78.5761C138.41 78.0309 137.574 77.6404 136.703 77.3678C135.825 77.1173 134.905 76.9405 133.951 76.8963Z" fill="white"/>
<path d="M164.972 101.158C166.923 101.121 168.944 101.887 170.421 103.368C170.797 103.729 171.097 104.171 171.397 104.598C171.634 105.077 171.912 105.527 172.045 106.042C172.24 106.536 172.303 107.066 172.379 107.582C172.428 108.105 172.407 108.628 172.393 109.137C172.177 108.127 171.961 107.14 171.543 106.256C171.16 105.357 170.616 104.554 169.94 103.891C169.278 103.213 168.498 102.661 167.662 102.211C166.805 101.784 165.913 101.408 164.972 101.158Z" fill="white"/>
<path d="M153.231 90.3423C153.663 90.4086 154.074 90.5707 154.471 90.777C154.868 90.9833 155.231 91.2559 155.551 91.5727C155.872 91.8969 156.137 92.2947 156.318 92.722C156.506 93.1494 156.576 93.6283 156.562 94.085C156.422 93.6504 156.304 93.223 156.074 92.8547C155.851 92.4863 155.607 92.14 155.3 91.8379C154.708 91.2338 153.997 90.7549 153.231 90.3423Z" fill="white"/>
<path d="M163.837 122.31C164.715 118.936 164.429 115.12 162.576 112.217C160.722 109.314 157.169 107.56 153.963 108.444C154.946 106.006 153.524 103.096 151.448 101.6C149.378 100.104 146.814 99.6402 144.361 99.0508C137.156 97.3194 130.251 94.1881 124.098 89.8633C120.984 87.6751 120.468 88.1687 118.998 84.6396C118.12 86.0027 116.399 88.2203 116.35 89.9075C113.57 87.2257 107.995 86.9457 106.1 89.937C104.198 92.9282 103.947 96.9068 105.069 100.311C106.19 103.714 108.574 106.558 111.41 108.555L111.758 107.126C111.549 114.678 115.681 121.927 121.541 126.252C127.401 130.577 134.759 132.213 141.895 131.991C148.48 131.785 154.932 130.098 161.217 127.991C162.381 126.245 163.308 124.351 163.837 122.31Z" fill="#3F4553"/>
<path d="M125.206 147.736V208.166H114.057V157.196H110.998C107.772 157.196 105.159 154.433 105.159 151.022C105.159 147.611 107.772 144.848 110.998 144.848H122.474C123.986 144.848 125.206 146.137 125.206 147.736Z" stroke="#8C96FF" stroke-width="0.490832" stroke-miterlimit="10"/>
<path d="M136.885 97.7317C136.418 93.8711 138.731 90.3788 142.048 89.9294C145.372 89.4799 148.445 92.2354 148.918 96.0961C149.385 99.9567 147.072 103.449 143.755 103.898C140.431 104.348 137.358 101.585 136.885 97.7317Z" fill="#8E97FD"/>
<path d="M136.885 97.7336C137.351 101.594 140.431 104.357 143.755 103.9C145.135 103.716 146.333 102.994 147.239 101.955C143.114 99.1555 142.389 92.2078 142.257 89.9165C142.187 89.9239 142.125 89.9239 142.055 89.9312C138.731 90.3807 136.418 93.8729 136.885 97.7336Z" fill="#8E97FD"/>
<path d="M128.028 113.683L130.369 124.838L138.577 127.313C138.577 127.313 141.511 124.211 141.511 123.593C141.511 122.974 137.407 111.2 137.407 111.2L128.028 113.683Z" fill="#FDBCA0"/>
<path d="M137.4 111.208L128.021 113.683L128.822 117.492C130.502 118.258 132.397 118.826 134.557 119.106C135.735 119.26 136.947 119.025 137.978 118.391C138.508 118.067 139.003 117.669 139.476 117.249C138.445 114.206 137.4 111.208 137.4 111.208Z" fill="#DF8370"/>
<path d="M115.13 91.3735C115.13 91.3735 113.96 115.547 134.474 116.785C140.919 114.309 145.023 105.011 143.853 97.5697C142.682 90.1358 135.059 77.736 123.924 81.4567C118.064 83.9396 115.13 91.3735 115.13 91.3735Z" fill="#FDBCA0"/>
<path d="M180.191 119.268L195.096 100.001C195.688 99.2352 196.015 98.2774 196.015 97.2827V92.0517C196.015 91.6538 196.259 91.2928 196.615 91.1676C197.186 90.9687 197.771 91.4181 197.771 92.0517V95.7208L203.046 85.8039L210.077 85.1851L200.698 102.536L186.629 128.566L180.191 119.268Z" fill="#FDBCA0"/>
<path d="M245.837 101.91L270.455 110.589L278.029 103.84C280.865 101.313 285.025 101.07 287.972 103.449C289.679 104.827 290.578 106.765 288.62 109.351C283.931 115.547 270.448 122.362 270.448 122.362L242.896 116.166L245.837 101.91Z" fill="#FDBCA0"/>
<path opacity="0.5" d="M242.91 116.166L256.588 119.245C257.466 114.036 256.784 108.776 256.149 105.549L245.844 101.917L242.91 116.166Z" fill="#DF8370"/>
<path d="M170.227 146.535C170.227 146.535 201.088 110.279 214.892 97.9011C217.191 95.8381 220.174 94.8361 223.184 95.094C233.371 95.9634 254.631 100.052 254.631 100.052C254.631 100.052 258.735 116.165 251.112 125.463C246.422 124.845 225.323 120.505 225.323 120.505L182.532 170.082L170.227 146.535Z" fill="#739BE0"/>
<path d="M252.282 133.517L272.211 157.064L288.83 160.077C291.917 160.637 293.854 164.085 292.627 167.136C291.833 169.103 289.931 171.755 285.694 170.702C275.73 168.226 266.351 165.124 266.351 165.124L242.903 145.291L252.282 133.517Z" fill="#FDBCA0"/>
<path opacity="0.5" d="M264.56 148.024L252.282 133.517L242.903 145.291L259.292 159.156C261.996 156.202 264.288 152.437 264.56 148.024Z" fill="#DF8370"/>
<path opacity="0.2" d="M214.759 105.07L171.676 149.298L182.539 170.082L225.33 120.505C225.33 120.505 246.429 124.845 251.118 125.463C251.606 124.874 252.038 124.248 252.435 123.607C244.771 116.983 235.622 109.38 228.807 104.068C224.514 100.73 218.578 101.15 214.759 105.07Z" fill="#739BE0"/>
<path d="M153.231 166.362C153.231 166.362 163.781 182.475 179.02 180.618C193.249 178.879 209.004 157.16 220.097 138.652C221.233 136.751 223.776 136.538 225.19 138.21C233.914 148.547 249.356 163.886 249.356 163.886C249.356 163.886 264.009 156.452 264.009 144.672C259.968 139.544 243.105 121.154 233.023 110.228C228.674 105.513 221.637 105.107 216.822 109.285L169.634 150.249L153.231 166.362Z" fill="#97B8FF"/>
<g opacity="0.5">
<path opacity="0.5" d="M179.02 180.617C193.249 178.879 209.004 157.159 220.097 138.651C221.233 136.751 223.776 136.537 225.19 138.209C233.914 148.546 249.356 163.886 249.356 163.886C249.356 163.886 252.77 162.147 256.303 159.03C248.45 150.764 240.13 142.998 231.392 135.8C228.563 133.472 225.204 131.07 221.686 131.807C218.627 132.455 216.473 135.277 214.599 137.915C210.544 143.617 206.495 149.32 202.44 155.022C198.015 161.248 193.34 167.695 186.713 171.091C181.062 173.979 174.282 174.303 168.408 171.968C163.851 170.155 159.893 166.752 157.21 162.464L153.231 166.368C153.231 166.361 163.781 182.474 179.02 180.617Z" fill="#97B8FF"/>
</g>
<path d="M210.084 163.415H230.598C237.071 163.415 242.318 157.867 242.318 151.022C242.318 144.178 237.071 138.63 230.598 138.63H214.341C211.986 138.63 210.077 140.649 210.077 143.139V163.415H210.084Z" fill="#8E97FD"/>
<path d="M207.15 216.712H220.801C225.56 216.712 229.42 212.631 229.42 207.598V138.623H215.77C211.011 138.623 207.15 142.704 207.15 147.736V216.712Z" fill="#8E97FD"/>
<path d="M212.982 147.736V208.166H224.131V157.196H227.19C230.416 157.196 233.029 154.433 233.029 151.022C233.029 147.611 230.416 144.848 227.19 144.848H215.714C214.202 144.848 212.982 146.137 212.982 147.736Z" stroke="#8C96FF" stroke-width="0.490832" stroke-miterlimit="10"/>
<path d="M120.405 102.528L110.441 105.63C110.441 105.63 113.374 116.166 128.028 122.981L129.784 122.362C129.784 122.362 137.985 127.217 140.041 118.899C143.358 117.676 147.532 116.66 150.8 115.96C154.179 115.238 157.684 115.805 160.701 117.551L172.421 124.351C173.529 124.992 174.916 124.72 175.731 123.696L183.71 113.683L191.848 120.159L180.567 139.146C179.835 140.383 178.323 140.818 177.097 140.148L166.129 134.136L172.575 144.671C172.575 144.671 171.989 163.886 153.231 166.362C146.786 159.547 138.578 150.868 133.888 147.147C129.199 143.426 113.96 132.89 109.855 128.551C105.751 124.211 95.2015 108.717 94.6162 100.664C94.6162 96.3249 118.064 93.2305 118.064 93.2305L120.405 102.528Z" fill="#FFFFFE"/>
<path d="M116.656 126.709C104.406 117.831 99.2151 106.235 97.0202 98.2554C95.543 98.9995 94.6162 99.8099 94.6162 100.672C95.2015 108.732 105.751 124.219 109.855 128.558C113.96 132.898 129.199 143.434 133.888 147.154C134.724 147.818 135.679 148.643 136.703 149.586C134.202 143.972 128.697 135.44 116.656 126.709Z" fill="#F2F2F2"/>
<path d="M154.938 126.134C155.426 125.987 155.928 125.906 156.437 125.861C156.945 125.81 157.454 125.817 157.97 125.869C158.987 125.972 160.018 126.244 160.945 126.775C161.879 127.276 162.701 128.042 163.3 128.948C163.635 129.383 163.851 129.891 164.094 130.378C164.324 130.871 164.45 131.409 164.631 131.925L164.582 131.822C165.154 132.64 165.683 133.494 166.234 134.327C166.784 135.167 167.3 136.021 167.815 136.891C167.167 136.132 166.526 135.366 165.92 134.585C165.314 133.796 164.68 133.023 164.094 132.22L164.074 132.198L164.039 132.117C163.851 131.645 163.704 131.151 163.488 130.687C163.251 130.245 163.056 129.774 162.743 129.383C162.485 128.956 162.136 128.609 161.802 128.241C161.426 127.932 161.07 127.593 160.638 127.357C159.809 126.849 158.889 126.48 157.914 126.303C156.945 126.127 155.942 126.046 154.938 126.134Z" fill="#97B8FF"/>
<path d="M131.895 99.3084C132.411 100.17 132.857 101.909 134.16 101.637C134.606 101.541 134.815 101.18 135.157 100.9C136.355 99.9126 136.982 101.43 136.132 102.263C135.693 102.69 135.08 102.793 134.515 102.86C134.188 102.896 134.181 103.449 134.515 103.412C135.338 103.316 136.202 103.117 136.731 102.381C137.156 101.791 137.24 100.981 136.773 100.391C136.341 99.861 135.7 99.7726 135.157 100.156C134.648 100.509 134.362 101.349 133.533 100.974C132.941 100.708 132.662 99.5516 132.348 99.0285C132.167 98.7337 131.714 99.0063 131.895 99.3084Z" fill="#444359"/>
<path d="M129.129 107.435C131.853 109.852 135.644 109.329 137.658 106.22C137.846 105.925 137.393 105.645 137.205 105.94C135.4 108.732 131.958 109.226 129.498 107.045C129.24 106.816 128.871 107.207 129.129 107.435Z" fill="#444359"/>
<path d="M122.809 97.6729C123.443 95.9489 125.046 94.9984 126.774 95.3226C127.101 95.3815 127.241 94.8511 126.913 94.7921C124.892 94.4164 123.046 95.5068 122.307 97.5329C122.182 97.8571 122.691 97.9971 122.809 97.6729Z" fill="#444359"/>
<path d="M124.474 102.572L123.087 101.725L124.683 101.872L124.474 102.572Z" fill="#444359"/>
<path d="M124.809 102.778C125.547 100.671 127.582 99.6986 129.589 100.413C129.909 100.524 130.049 99.9933 129.728 99.8828C127.443 99.0723 125.136 100.259 124.307 102.638C124.189 102.962 124.69 103.11 124.809 102.778Z" fill="#444359"/>
<path d="M125.714 100.546L125.094 98.623L126.321 100.185L125.714 100.546Z" fill="#444359"/>
<path d="M128.579 99.9487L129.004 98.6226L129.275 100L128.579 99.9487Z" fill="#444359"/>
<path d="M139.128 95.4254L140.103 94.0771L139.762 95.7349L139.128 95.4254Z" fill="#444359"/>
<path d="M139.874 95.6175C137.665 94.7039 135.303 95.728 134.362 98.0267C134.229 98.3509 134.682 98.6308 134.815 98.3067C135.672 96.2142 137.72 95.3154 139.741 96.1479C140.048 96.2806 140.18 95.7427 139.874 95.6175Z" fill="#444359"/>
<path d="M136.849 95.5807L136.578 93.5693L137.511 95.3449L136.849 95.5807Z" fill="#444359"/>
<path d="M134.738 97.7689L133.951 96.6343L135.17 97.1942L134.738 97.7689Z" fill="#444359"/>
<path d="M196.866 101.917L203.799 78.9301C203.98 78.3333 204.496 77.9208 205.095 77.906L217.533 77.5597C218.487 77.5303 219.184 78.5028 218.905 79.468L211.993 103.346C211.805 103.987 211.234 104.415 210.6 104.393L198.141 103.855C197.221 103.796 196.587 102.845 196.866 101.917Z" fill="#3F4553"/>
<path d="M195.695 101.918L202.628 78.9306C202.809 78.3338 203.325 77.9212 203.924 77.9065L216.362 77.5602C217.316 77.5308 218.013 78.5033 217.735 79.4684L210.822 103.347C210.634 103.988 210.063 104.415 209.429 104.393L196.97 103.855C196.043 103.796 195.416 102.846 195.695 101.918Z" fill="#4E5567"/>
<path d="M215.477 81.303L210.844 97.2982L210.182 99.5969L209.868 100.68C209.757 101.063 209.478 101.35 209.143 101.468C209.011 101.512 208.879 101.535 208.739 101.527L206.14 101.417L198.629 101.093C197.876 101.056 197.367 100.282 197.59 99.5306L201.179 87.6245L202.538 83.1228L203.221 80.8683C203.248 80.7726 203.29 80.6768 203.346 80.5957C203.541 80.2642 203.883 80.0505 204.266 80.0358L204.628 80.0284L214.363 79.7558C215.136 79.7337 215.7 80.5221 215.477 81.303Z" fill="#F2EDE4"/>
<g opacity="0.35">
<path opacity="0.35" d="M210.843 97.2981L210.181 99.5968L203.346 80.5956C203.541 80.2641 203.882 80.0504 204.265 80.0357L204.628 80.0283L210.843 97.2981Z" fill="white"/>
</g>
<g opacity="0.35">
<path opacity="0.35" d="M209.143 101.468C209.011 101.512 208.878 101.534 208.739 101.527L206.14 101.416L201.179 87.6242L202.537 83.1226L209.143 101.468Z" fill="white"/>
</g>
<path d="M117.848 106.094C120.265 100.289 120.907 93.6726 119.659 87.4617C120.53 90.4161 123.575 92.0886 126.481 92.4791C129.387 92.8696 132.334 92.3243 135.261 92.4791C138.187 92.6338 141.351 93.7242 142.828 96.3987C143.1 96.8849 143.399 97.4891 143.929 97.5333C144.591 97.5922 144.981 96.767 145.12 96.0818C146.201 90.9466 144.208 85.3104 140.41 81.9065C136.612 78.5027 131.233 77.3165 126.376 78.4732C121.52 79.6299 117.241 83.0043 114.496 87.388C112.775 90.1362 111.611 93.3116 111.437 96.6049C111.263 99.8909 112.127 103.287 114.071 105.859C114.552 106.492 115.144 107.104 115.896 107.281C116.649 107.457 117.569 107.008 117.687 106.198" fill="#3F4553"/>
<path d="M117.781 113.5C121.386 112.722 123.668 108.77 122.877 104.671C122.087 100.573 118.524 97.8804 114.919 98.6577C111.314 99.4349 109.033 103.387 109.823 107.486C110.614 111.584 114.177 114.277 117.781 113.5Z" fill="#8E97FD"/>
<path d="M113.716 103.037C109.758 90.2759 114.712 85.4648 114.935 85.1554L115.081 85.1407H115.116L115.263 85.1333C115.095 85.3764 113.102 91.16 116.357 101.652L113.716 103.037Z" fill="#8E97FD"/>
<path d="M122.07 110.168C111.827 113.042 110.141 107.243 110.161 103.059C109.674 104.407 109.534 105.939 109.834 107.494C110.628 111.598 114.189 114.287 117.791 113.513C119.652 113.101 121.157 111.848 122.07 110.168Z" fill="#8E97FD"/>
<path d="M262.342 175.883C263.599 168.494 262.615 164.082 260.118 162.027C259.375 161.417 258.738 161.116 258.193 161.028C257.673 160.945 257.155 161.041 256.595 161.386C255.39 162.127 254.048 163.977 252.594 167.38C252.594 167.381 252.593 167.382 252.593 167.383L252.418 167.799C252.418 167.8 252.417 167.8 252.417 167.801C249.342 175.219 246.626 188.089 244.327 206.46L244.187 207.589C243.869 210.177 240.094 210.128 239.852 207.526C239.053 198.953 237.842 193.036 236.345 189.531C235.593 187.77 234.821 186.747 234.111 186.256C233.479 185.82 232.84 185.76 232.059 186.115C227.987 187.968 225.733 193.208 226.025 202.739C226.315 212.178 229.102 225.371 234.521 242.354C234.521 242.354 234.521 242.354 234.521 242.354L234.71 242.945H245.03L245.738 242.103L262.342 175.883ZM262.342 175.883C261.101 183.179 257.737 192.988 252.14 205.308M262.342 175.883L252.14 205.308M252.14 205.308C251.193 207.393 253.689 209.342 255.482 207.918C255.482 207.917 255.483 207.916 255.484 207.916L255.87 207.612C255.87 207.611 255.871 207.611 255.872 207.61C257.433 206.395 258.767 205.536 259.899 205.001C261.04 204.463 261.905 204.286 262.554 204.339C263.161 204.389 263.654 204.644 264.09 205.165C264.55 205.716 264.957 206.582 265.276 207.847L265.315 208.012C265.58 209.239 265.453 210.882 264.816 212.992C264.181 215.095 263.062 217.588 261.437 220.471C258.185 226.238 252.965 233.462 245.74 242.101L252.14 205.308Z" fill="white" stroke="black" stroke-width="2"/>
<path fill-rule="evenodd" clip-rule="evenodd" d="M104.721 239.712C104.721 239.712 82.0019 230.202 82.0041 216.967C82.0048 213.084 84.4333 213.457 89.2902 218.087C89.8186 218.59 90.575 219.363 91.5605 220.405C92.1637 221.044 78.5306 204.483 85.4019 201.387C92.1004 198.369 93.6557 214.044 94.0057 213.827C94.3948 213.587 94.2821 208.844 95.8327 206.748C96.6679 205.618 99.1239 205.377 100.982 206.749C110.743 213.953 104.721 239.712 104.721 239.712Z" fill="white"/>
<path fill-rule="evenodd" clip-rule="evenodd" d="M81.9123 201.466C78.579 202.968 78.8097 206.759 81.3544 211.923L81.5495 212.313C82.015 213.229 82.546 214.174 83.1338 215.144L83.3361 215.475L83.3108 215.458C82.3592 214.825 81.5381 214.454 80.8322 214.346C78.9563 214.058 78 215.44 78 217.845C78 227.109 85.8225 234.938 101.26 241.397C101.761 241.607 102.329 241.315 102.453 240.787C106.536 223.306 105.251 211.992 98.3741 206.918C96.2645 205.362 93.214 205.459 91.9987 207.103L91.8934 207.252C91.3763 208.011 91.0161 209.011 90.7488 210.254L90.7369 210.309L90.7024 210.173C90.5124 209.428 90.3117 208.727 90.0841 208.023C89.3307 205.692 88.4296 203.861 87.2994 202.636C85.8111 201.023 83.9616 200.542 81.9123 201.466ZM89.4638 212.581L89.8488 214.398L89.8937 214.587C89.9216 214.701 89.9474 214.792 89.9737 214.87C90.0088 214.975 90.0459 215.062 90.1037 215.154C90.1765 215.268 90.2663 215.369 90.4092 215.455C90.6874 215.623 91.045 215.633 91.3397 215.451C91.719 215.216 91.8119 215.015 91.9156 214.352L91.9641 214.02C91.9987 213.775 92.1241 212.734 92.1453 212.569C92.2294 211.911 92.3135 211.367 92.4172 210.85C92.6598 209.635 92.987 208.718 93.4096 208.146C93.9881 207.364 95.9383 207.302 97.3322 208.33L97.5149 208.468C103.315 212.935 104.57 223.053 101.085 238.887L100.977 239.37L100.621 239.216C86.6471 233.121 79.7546 225.979 79.7546 217.845C79.7546 216.369 80.0126 215.995 80.5659 216.081C81.5448 216.231 83.2551 217.405 85.5583 219.6L85.8529 219.885C86.2038 220.23 86.6353 220.669 87.1457 221.202L87.8258 221.916C87.8377 221.926 87.8552 221.943 87.8898 221.974L87.9012 222C87.928 222.045 88.0147 222.061 88.5896 222.168L88.7904 222.097C89.0272 222.007 89.0649 221.948 89.2667 221.631L89.3126 221.438C89.3405 221.312 89.3363 221.282 89.3219 221.173L89.2832 221.017C89.2749 220.987 89.2687 220.971 89.2579 220.948L89.2491 220.929C89.2254 220.879 89.212 220.853 89.1898 220.819L88.9508 220.498L88.3429 219.692C88.2387 219.553 88.1334 219.411 88.0168 219.253C87.0166 217.895 86.047 216.493 85.1356 215.046C84.2815 213.69 83.5368 212.382 82.9279 211.148C80.7811 206.791 80.6097 203.977 82.6332 203.065C85.068 201.967 86.9377 203.994 88.4147 208.563C88.8161 209.805 89.134 211.056 89.4638 212.581Z" fill="#00160A"/>
<path d="M215.944 237.165H218.878L213.603 221.67H209.499L215.944 237.165Z" fill="#3F414E"/>
<path d="M122.753 237.165H119.82L125.095 221.67H129.199L122.753 237.165Z" fill="#3F414E"/>
</svg>
