<svg width="300" height="301" viewBox="0 0 300 301" fill="none" xmlns="http://www.w3.org/2000/svg">
<path d="M214.532 60.8671C211.46 52.6653 208.255 44.108 186.556 49.8961C174.905 53.0039 165.138 63.9846 157.154 80.2912C151.147 93.2598 146.072 110.03 142.023 130.137C133.75 171.222 130.264 224.37 131.893 276.043L128.283 276.157L128.235 274.599C127.133 237.285 128.68 199.275 132.762 165.576C115.397 147.528 95.6043 133.303 81.1814 128.578C47.0026 121.042 37.9731 140.952 38.197 158.714C38.2378 161.961 39.3731 164.662 40.5162 167.383C41.6985 170.197 42.8896 173.032 42.8896 176.515C42.8896 178.825 37.7243 183.596 31.0098 189.798C17.809 201.992 -1.37905 219.716 0.923926 235.14C3.05217 249.394 16.5493 260.218 28.9724 266.036C30.1888 266.606 31.5135 267.665 33.1076 268.938C34.2409 269.844 35.5109 270.859 36.9745 271.883L37.087 271.962C38.2368 272.754 40.1343 273.871 42.7802 275.314L43.5961 275.757C81.0235 295.947 124.461 282.345 137.997 277.324L138.787 277.028L234.773 275.959L234.761 275.884C234.735 275.727 234.692 275.495 234.637 275.194C233.734 270.305 229.497 247.336 238.52 238.08C266.7 209.174 297.6 126.45 255.587 91.7849C246.303 84.1245 237.09 79.467 230.015 75.8907C225.718 73.7186 222.209 71.9449 219.951 70.1387C217.171 67.9145 215.864 64.4243 214.532 60.8671Z" fill="#2C2E5C"/>
<path fill-rule="evenodd" clip-rule="evenodd" d="M76.1841 276.281C76.1841 276.281 53.4629 266.774 53.4629 253.539C53.4629 249.656 55.8915 250.029 60.7492 254.658C61.2776 255.161 62.0342 255.934 63.0198 256.976C63.6231 257.615 49.9872 241.056 56.8581 237.959C63.556 234.94 65.114 250.614 65.4639 250.398C65.853 250.157 65.7395 245.415 67.2897 243.318C68.1247 242.188 70.5807 241.947 72.439 243.318C82.2009 250.521 76.1841 276.281 76.1841 276.281Z" fill="white"/>
<path fill-rule="evenodd" clip-rule="evenodd" d="M53.9172 237.159C50.5839 238.662 50.8146 242.452 53.3593 247.617L53.5544 248.007C54.0199 248.922 54.5509 249.868 55.1387 250.837L55.341 251.168L55.3157 251.151C54.3641 250.518 53.543 250.148 52.837 250.039C50.9611 249.751 50.0049 251.133 50.0049 253.539C50.0049 262.802 57.8274 270.631 73.2648 277.09C73.7654 277.3 74.3341 277.009 74.4575 276.48C78.5411 258.999 77.2556 247.686 70.379 242.612C68.2694 241.055 65.2189 241.152 64.0036 242.796L63.8983 242.945C63.3812 243.705 63.021 244.704 62.7537 245.948L62.7418 246.003L62.7072 245.866C62.5173 245.122 62.3166 244.42 62.089 243.717C61.3355 241.386 60.4345 239.555 59.3043 238.329C57.816 236.717 55.9664 236.235 53.9172 237.159ZM61.4687 248.275L61.8537 250.091L61.8986 250.28C61.9264 250.394 61.9522 250.486 61.9786 250.564C62.0137 250.669 62.0508 250.755 62.1086 250.848C62.1814 250.962 62.2712 251.062 62.4141 251.148C62.6923 251.317 63.0499 251.326 63.3446 251.144C63.7239 250.91 63.8168 250.709 63.9205 250.045L63.969 249.714C64.0036 249.469 64.129 248.427 64.1502 248.262C64.2343 247.604 64.3184 247.061 64.4221 246.543C64.6647 245.329 64.9918 244.411 65.4145 243.839C65.993 243.057 67.9432 242.995 69.3371 244.024L69.5198 244.161C75.3198 248.629 76.5749 258.746 73.0899 274.58L72.982 275.064L72.6254 274.909C58.652 268.815 51.7595 261.672 51.7595 253.539C51.7595 252.062 52.0175 251.689 52.5707 251.774C53.5497 251.924 55.26 253.098 57.5631 255.293L57.8578 255.578C58.2087 255.923 58.6402 256.363 59.1505 256.895L59.8307 257.609C59.8426 257.62 59.8601 257.636 59.8947 257.667L59.9061 257.694C59.9329 257.738 60.0196 257.754 60.5945 257.861L60.7952 257.79C61.0321 257.7 61.0698 257.641 61.2716 257.324L61.3175 257.132C61.3454 257.005 61.3412 256.975 61.3268 256.866L61.2881 256.71C61.2798 256.68 61.2736 256.664 61.2628 256.641L61.254 256.623C61.2303 256.572 61.2169 256.546 61.1947 256.512L60.9557 256.191L60.3478 255.386C60.2436 255.246 60.1383 255.104 60.0217 254.946C59.0215 253.588 58.0518 252.186 57.1405 250.739C56.2864 249.383 55.5417 248.076 54.9328 246.841C52.7859 242.484 52.6146 239.671 54.6381 238.759C57.0729 237.661 58.9426 239.687 60.4195 244.256C60.821 245.498 61.1389 246.749 61.4687 248.275Z" fill="#00160A"/>
<path fill-rule="evenodd" clip-rule="evenodd" d="M51.6425 280.926C49.65 282.073 50.4617 283.268 54.7585 285.175C59.3948 287.26 68.0244 291.285 82.8457 292.418C105.803 294.175 126.705 290.861 153.092 290.861C189.623 290.861 205.658 298.888 218.444 297.037C252.719 292.074 260.484 282.444 250.258 279.959C239.032 277.23 203.351 277.564 191.34 276.779L187.623 276.541L184.43 276.461C149.857 275.612 94.44 276.461 83.6172 276.461C61.538 276.461 51.6425 280.926 51.6425 280.926Z" fill="white"/>
<path fill-rule="evenodd" clip-rule="evenodd" d="M153.092 290.862C189.623 290.862 205.658 299.166 218.444 297.315C252.719 292.352 260.483 282.444 250.258 279.959C239.032 277.231 198.252 276.345 188.211 276.562C188.211 276.562 234.374 285.092 231.904 287.917C224.549 296.329 206.234 286.164 172.971 286.461C166.118 286.522 153.092 290.862 153.092 290.862Z" fill="#E7EAEE"/>
<path fill-rule="evenodd" clip-rule="evenodd" d="M85.8085 276.822C84.9193 276.827 84.205 276.829 83.6173 276.829L82.6094 276.831C68.2556 276.899 57.7863 278.407 51.1569 281.399L51.0532 281.452C49.505 282.343 48.9116 283.657 49.8848 285.005C50.5139 285.877 51.8309 286.701 54.0546 287.702L55.9444 288.547C58.3029 289.591 59.7014 290.157 61.8012 290.896L62.0293 290.976C68.0864 293.091 74.8086 294.536 82.756 295.144C88.4032 295.576 94.1578 295.725 100.467 295.637L102.675 295.599C106.823 295.513 110.356 295.367 116.812 295.021L127.97 294.403C138.603 293.827 145.09 293.597 152.748 293.591H153.092C166.799 293.591 177.995 294.634 190.414 296.667L191.492 296.847C193.363 297.172 203.655 298.985 206.497 299.394L206.595 299.408C211.554 300.105 215.223 300.245 218.613 299.754L219.561 299.615C234.956 297.314 246.081 293.887 251.699 290.096C257.312 286.308 256.804 281.969 250.723 280.407L250.538 280.36C245.487 279.133 235.902 278.451 221.007 278.005L217.952 277.919C217.062 277.895 216.142 277.871 215.174 277.848L202.208 277.547C197.214 277.424 194.153 277.318 191.835 277.177L187.699 276.912L184.459 276.829L181.167 276.755C171.619 276.556 160.216 276.46 147.163 276.453H143.282C134.186 276.458 124.771 276.503 114.26 276.581L85.8085 276.822ZM150.198 278.817C163.227 278.839 174.523 278.953 183.864 279.177L187.593 279.27L191.833 279.542C194.167 279.681 197.222 279.786 202.139 279.907L214.629 280.196C216.101 280.231 217.462 280.266 218.767 280.302L221.826 280.392C236.025 280.833 245.254 281.506 249.98 282.655L250.263 282.726C254.183 283.755 254.311 285.485 250.379 288.139C245.001 291.768 222.928 301.489 207.329 298.175L206.611 298.074C203.314 297.583 192.264 295.105 191.614 294.997L190.012 294.735C178.051 292.809 167.133 291.799 153.973 291.756H152.059C144.19 291.777 137.411 292.039 125.894 292.677L117.902 293.122C110.172 293.543 106.486 293.694 101.677 293.781L101.29 293.788C76.8997 294.735 62.0293 289.053 62.0293 289.053C60.0828 288.358 55.0465 286.609 55.0465 286.609L54.6718 286.437C42.9221 282.448 68.5751 279.257 82.6305 279.192L87.0119 279.175L112.465 278.956C124.314 278.864 134.747 278.814 144.838 278.813L150.198 278.817Z" fill="#00160A"/>
<path fill-rule="evenodd" clip-rule="evenodd" d="M279.835 194.322L279.736 194.562L279.537 195.059C276.956 201.607 274.678 211.638 272.689 225.177L272.573 225.973L272.566 225.934C271.796 221.394 270.823 217.866 269.639 215.339C267.583 210.949 264.652 209.291 261.189 210.867C249.951 215.98 250.621 236.768 262.523 273.302C262.681 273.787 263.134 274.117 263.645 274.117H276.565C276.912 274.117 277.241 273.964 277.466 273.699C293.6 254.669 300.825 241.876 299.059 234.847L299.001 234.624C297.394 228.577 293.375 227.281 287.643 230.531L287.439 230.648L287.725 229.99C297.668 206.954 299.493 192.771 292.774 187.243C287.842 183.184 283.34 185.869 279.835 194.322ZM291.466 188.154C297.382 193.02 295.279 208.956 284.059 233.656C283.546 234.785 296.769 225.934 296.769 235.422L296.812 235.603C298.084 241.443 291.514 253.233 277.027 270.555L276.017 271.756L263.645 272.637C263.645 272.637 246.965 217.562 262.166 213.016C266.541 211.708 269.768 218.06 271.369 235.244C271.5 236.651 273.544 236.681 273.716 235.278L273.856 234.146C276.156 215.767 278.884 202.779 282.016 195.227L282.195 194.801C285.12 187.952 288.162 185.435 291.466 188.154Z" fill="#00160A"/>
<path d="M291.274 189.066C297.189 193.932 294.792 208.833 283.572 233.533C283.059 234.662 284.412 235.717 285.382 234.944L285.777 234.633C292.151 229.671 295.419 230.051 296.769 235.422L296.812 235.603C298.084 241.443 291.514 253.233 277.027 270.555L276.017 271.755H264.503L264.09 270.469C253.234 236.446 252.806 217.274 262.166 213.016C266.484 211.051 269.768 218.06 271.369 235.244C271.5 236.651 273.543 236.681 273.716 235.278L273.856 234.146C276.156 215.768 278.884 202.779 282.016 195.226L282.195 194.801C285.12 187.952 287.969 186.346 291.274 189.066Z" fill="white"/>
<path d="M260.514 232.262C262.832 232.262 264.711 230.383 264.711 228.065C264.711 225.747 262.832 223.868 260.514 223.868C258.196 223.868 256.317 225.747 256.317 228.065C256.317 230.383 258.196 232.262 260.514 232.262Z" fill="#E7EAEE"/>
<path d="M286.746 204.982C289.064 204.982 290.943 203.103 290.943 200.785C290.943 198.467 289.064 196.588 286.746 196.588C284.428 196.588 282.549 198.467 282.549 200.785C282.549 203.103 284.428 204.982 286.746 204.982Z" fill="#E7EAEE"/>
<path d="M288.844 245.38C291.162 245.38 293.042 243.501 293.042 241.183C293.042 238.865 291.162 236.986 288.844 236.986C286.527 236.986 284.647 238.865 284.647 241.183C284.647 243.501 286.527 245.38 288.844 245.38Z" fill="#E7EAEE"/>
<path fill-rule="evenodd" clip-rule="evenodd" d="M66.3923 277.032C58.9837 277.149 33.5067 279.037 33.067 278.092C32.504 276.882 60.2862 275.292 66.3417 275.196L68.2387 275.171C73.7451 275.111 66.3923 277.032 66.3923 277.032ZM175.368 274.576C176.02 274.559 176.562 275.073 176.579 275.725C176.597 276.377 176.082 276.919 175.431 276.936L164.886 277.196C158.324 277.348 150.716 277.503 139.476 277.725C138.824 277.738 138.285 277.22 138.273 276.568C138.26 275.916 138.777 275.377 139.43 275.364L159.334 274.959C165.377 274.828 170.231 274.712 175.368 274.576ZM202.565 274.026C203.217 274.016 203.754 274.536 203.764 275.188C203.774 275.84 203.254 276.376 202.602 276.387L199.836 276.421L191.373 276.479C189.601 276.497 188.214 276.521 186.579 276.562C185.927 276.578 185.386 276.062 185.37 275.41C185.354 274.758 185.869 274.217 186.521 274.201L188.603 274.157C189.966 274.132 191.351 274.116 193.191 274.103L200.228 274.056C201.047 274.048 201.787 274.039 202.565 274.026ZM279.066 271.756C279.066 271.756 281.185 271.39 296.658 272.548C297.308 272.597 297.796 273.163 297.747 273.813C297.699 274.463 290.047 274.135 279.587 274.117L276.71 274.121C269.03 274.155 261.895 274.363 250.053 274.851L235.106 275.482C228.728 275.743 224.922 275.871 220.295 275.979C219.644 275.995 219.103 275.479 219.087 274.828C219.072 274.176 219.588 273.635 220.24 273.62L223.956 273.523C228.376 273.395 232.918 273.216 240.971 272.873L249.511 272.51C262.863 271.958 270.288 271.756 279.066 271.756Z" fill="#00160A"/>
<path d="M243.298 101.835L243.569 101.338C245.686 97.5045 247.529 95.6013 249.679 96.2221C249.854 96.2722 250.025 96.3413 250.192 96.428C251.51 97.1108 251.826 98.3808 251.457 100.114L251.432 100.221L251.494 100.132C252.119 99.2452 252.714 98.5604 253.331 98.0521L253.464 97.9457C254.837 96.877 256.293 96.7779 257.612 97.891C259.717 99.6684 259.478 102.65 257.759 104.484L257.664 104.583C257.425 104.825 257.281 105.348 257.121 106.578L256.982 107.656C256.815 108.9 256.703 109.445 256.441 110.288C255.945 111.879 255.133 113.207 253.868 114.291C252.278 115.654 249.594 115.464 245.814 113.91C245.408 113.743 245.214 113.279 245.38 112.873C245.548 112.467 240.078 107.644 239.913 107.855L239.86 107.917C239.556 108.233 239.052 108.243 238.736 107.939L237.967 107.199C237.505 106.752 237.736 105.971 238.366 105.847C239.521 105.62 240.418 105.37 241.048 105.102C241.577 104.878 241.866 104.664 241.934 104.525C241.934 104.525 243.082 102.237 243.298 101.835Z" fill="white"/>
<path fill-rule="evenodd" clip-rule="evenodd" d="M237.625 105.927C236.285 105.826 235.497 106.845 235.497 108.078C235.497 112.347 242.471 118.184 247.016 118.184C248.348 118.184 249.438 117.232 249.051 115.775C248.905 115.226 248.569 114.739 248.019 114.139L247.898 114.008C247.279 113.351 246.639 112.765 245.205 111.53L243.007 109.647C242.469 109.181 241.611 108.436 241.352 108.215L241.04 107.95C240.439 107.443 239.975 107.075 239.56 106.781C238.827 106.263 238.26 105.974 237.625 105.927ZM237.087 108.078C237.087 106.409 239.478 108.716 242.356 111.185L244.269 112.821C246.609 114.839 249.466 116.939 248.019 117.092C243.436 117.581 237.087 111.502 237.087 108.078Z" fill="#00160A"/>
<path fill-rule="evenodd" clip-rule="evenodd" d="M237.992 94.7402C238.32 94.4492 239.961 93.303 239.114 94.8078C238.267 96.3122 233.367 98.2206 238.267 105.829C238.453 106.119 238.226 106.699 237.817 106.86C237.408 107.02 236.947 106.819 236.787 106.41C235.548 103.255 234.975 100.971 235.085 99.4865C235.201 97.913 236.188 96.339 237.992 94.7402Z" fill="#00160A"/>
<path fill-rule="evenodd" clip-rule="evenodd" d="M231.87 97.3902C231.957 96.9598 232.806 95.8942 232.806 96.7668C232.806 97.6395 231.558 99.8529 233.315 102.347C235.071 104.841 238.095 106.533 237.836 106.887C237.577 107.242 237.08 107.32 236.725 107.062C234.182 105.209 232.637 103.759 232.055 102.623C231.448 101.438 231.406 99.7027 231.87 97.3902Z" fill="#00160A"/>
<path fill-rule="evenodd" clip-rule="evenodd" d="M243.298 101.835L243.569 101.338C245.686 97.5045 247.529 95.6013 249.679 96.2221C249.854 96.2722 250.025 96.3413 250.192 96.428C251.51 97.1108 251.826 98.3808 251.457 100.114L251.432 100.221L251.494 100.132C252.119 99.2452 252.714 98.5604 253.331 98.0521L253.464 97.9457C254.837 96.877 256.293 96.7779 257.612 97.891C259.717 99.6684 259.478 102.65 257.759 104.484L257.664 104.583C257.425 104.825 257.281 105.348 257.121 106.578L256.982 107.656C256.815 108.9 256.703 109.445 256.441 110.288C255.945 111.879 255.133 113.207 253.868 114.291C252.278 115.654 249.594 115.464 245.814 113.91C245.408 113.743 245.214 113.279 245.38 112.873C245.548 112.467 251.271 115.793 253.464 113.207C255.657 110.621 255.894 105.273 256.527 103.652L256.68 103.37C257.892 102.143 257.933 100.243 256.586 99.1059C255.891 98.5191 255.261 98.5619 254.441 99.2003C253.694 99.7819 252.915 100.78 252.018 102.233L251.755 102.666C251.313 103.411 250.429 104.956 250.311 105.152L250.15 105.419C249.605 106.309 248.911 106.866 248.808 106.891C248.705 106.914 248.559 106.832 248.522 106.079C248.51 105.832 248.573 105.582 248.705 105.243L248.758 105.112C248.917 104.724 249.795 102.899 249.856 102.769C250.122 102.194 250.336 101.693 250.514 101.221C251.228 99.3169 250.165 98.2043 249.46 97.8394C249.385 97.8002 249.311 97.7703 249.239 97.7496C248.147 97.4343 246.627 99.0553 244.853 102.303L244.469 103.021C244.185 103.563 243.907 104.121 243.36 105.228C242.962 106.033 241.901 106.611 240.132 107.076L240.035 107.101L240.044 107.124C240.122 107.369 240.078 107.644 239.913 107.855L239.86 107.917C239.556 108.233 239.052 108.243 238.736 107.939L237.967 107.199C237.505 106.752 237.736 105.971 238.366 105.847C239.521 105.62 240.418 105.37 241.048 105.102C241.577 104.878 241.866 104.664 241.934 104.525L242.677 103.029C242.905 102.577 243.082 102.237 243.298 101.835Z" fill="#00160A"/>
<path d="M253.73 105.749C254.728 105.749 255.536 105.086 255.536 104.268C255.536 103.45 254.728 102.787 253.73 102.787C252.732 102.787 251.924 103.45 251.924 104.268C251.924 105.086 252.732 105.749 253.73 105.749Z" fill="#FFB61D"/>
<path d="M248.569 101.62C249.566 101.62 250.375 100.957 250.375 100.139C250.375 99.3212 249.566 98.6582 248.569 98.6582C247.571 98.6582 246.763 99.3212 246.763 100.139C246.763 100.957 247.571 101.62 248.569 101.62Z" fill="#FFB61D"/>
<mask id="path-20-inside-1_2003_2030" fill="white">
<path fill-rule="evenodd" clip-rule="evenodd" d="M109.83 8.52357C107.654 7.31155 104.752 8.71722 105.962 11.9213C107.259 15.3524 112.053 15.3948 114.76 15.3268C114.489 15.3108 113.617 12.1645 113.318 11.689C112.437 10.2865 111.168 9.27003 109.83 8.52357ZM134.908 70.0393C135.458 70.5665 134.953 70.0887 134.908 70.0393V70.0393ZM107.733 24.0424C106.46 25.1358 106.399 27.0663 107.439 28.373C108.678 29.9286 110.941 29.872 112.629 29.7204C113.393 29.6517 117.472 29.285 116.505 28.5354C116.58 28.567 116.735 28.6435 116.901 28.7476C116.991 29.1146 117.085 29.4804 117.182 29.8445C117.158 29.8602 117.138 29.8771 117.112 29.8928C117.14 29.8791 117.16 29.8643 117.184 29.8505C118.165 33.4898 119.561 36.955 121.389 40.1969C120.705 39.8944 119.997 39.6654 119.278 39.5635C117.15 39.2613 112.674 41.1183 115.054 44.2999C117.337 47.35 120.89 44.0777 123.48 43.6265C125.992 47.5641 128.762 51.3377 131.665 54.9853C131.487 55.0478 131.331 55.1782 131.242 55.3811C130.077 54.7176 128.864 53.7685 127.786 53.5115C126.231 53.1412 123.041 52.9167 121.866 54.48C120.42 56.4024 121.97 57.9638 123.678 58.3324C126.155 58.8672 129.397 57.5082 131.781 56.5899C132.053 56.6441 132.351 56.5545 132.529 56.3096C132.581 56.2903 132.634 56.2712 132.685 56.2527C135.625 59.8824 138.677 63.3923 141.711 66.8253C141.679 66.8234 141.646 66.8212 141.613 66.8192C140.821 66.2364 139.973 65.7582 139.052 65.5077C136.924 64.9251 134.42 64.9223 132.693 66.6517C130.972 68.3737 130.363 71.3853 132.143 73.3189C135.705 77.1894 140.955 68.3643 142.752 67.9959C145.835 71.448 149.094 74.6733 152.406 77.8336C152.03 77.705 151.644 77.6105 151.245 77.568C147.999 77.219 140.378 81.689 144.362 86.0869C147.835 89.9194 151.854 82.5429 154.652 79.9632C157.772 82.9087 160.909 85.834 163.958 88.8733C162.295 88.3775 160.688 88.3045 158.905 88.9094C157.061 89.5362 154.084 91.1003 155.25 93.8971C156.436 96.7413 160.011 95.4471 161.872 94.544C162.888 94.0516 164.923 92.3894 166.711 91.6892C171.576 96.8476 175.791 102.529 178.981 109.222C180.973 113.401 182.484 117.866 183.548 122.454C184.227 125.383 185.565 130.302 185.298 134.114C186.574 126.484 184.266 117.32 181.779 110.499C179.492 104.227 176.07 98.7218 172.061 93.7659C173.067 90.3684 181.534 85.4681 176.473 82.3115C173.785 80.6426 171.032 83.4119 170.444 86.3449C170.041 88.3604 170.656 90.8929 171.308 92.8491C170.047 91.3384 168.736 89.8762 167.385 88.4626C165.519 86.5089 163.607 84.6119 161.678 82.7387C164.857 79.384 167.867 69.7934 163.603 68.2249C157.307 65.9153 160.339 78.9972 160.778 81.4491C160.903 81.4573 161 81.415 161.071 81.3243C161.036 81.5489 160.995 81.789 160.945 82.0311C157.252 78.4647 153.503 74.9684 149.879 71.3168C150.205 71.0457 150.724 70.01 151.132 69.4587C152.053 68.2159 152.934 66.9177 153.578 65.4639C154.595 63.1664 155.576 59.5018 152.88 58.1504C149.948 56.678 148.554 60.8228 148.534 63.2954C148.52 65.0054 148.935 66.6299 149.151 68.3061C149.218 68.8288 148.958 71.1852 149.592 70.1715C149.563 70.5453 149.558 70.816 149.573 71.0079C148.922 70.349 148.277 69.683 147.635 69.0122C147.665 68.9275 147.687 68.8351 147.692 68.7281C147.726 67.9909 147.066 67.707 146.602 67.9229C145.756 67.0194 144.917 66.1044 144.094 65.1713C142.349 63.1945 140.578 61.1612 138.82 59.0847C139.201 58.7166 139.049 58.207 139.406 57.8163C139.762 57.4265 140.464 57.2109 140.883 56.8488C141.936 55.9375 142.81 54.6098 143.442 53.3032C144.485 51.1443 145.833 46.6154 142.785 45.5864C139.645 44.5241 138.051 48.8837 137.849 51.6093C137.809 52.1374 138.161 56.8952 138.431 58.6229C135.177 54.7637 131.977 50.7597 129.078 46.686C129.957 46.6769 132.449 44.6544 132.953 44.1025C134.183 42.7565 136.137 39.7822 133.982 38.2082C132.065 36.8122 129.703 38.8342 128.884 40.7993C128.749 41.1229 128.274 44.1346 128.237 45.4859C127.037 43.7584 125.893 42.0208 124.828 40.2775C124.117 39.1185 123.454 37.9289 122.833 36.714C122.982 36.6188 123.123 36.4529 123.256 36.2466C126.452 35.6375 130.527 30.0376 126.772 28.0893C124.985 27.1628 123.047 29.0752 122.171 30.6409C121.992 30.9612 121.701 32.5717 121.465 33.8419C119.678 29.8172 118.313 25.5562 117.274 21.1875C117.552 21.1099 117.788 20.8712 117.819 20.4607C119.371 19.4673 120.596 18.6401 121.679 16.7299C122.352 15.5434 123.564 12.8325 121.587 12.174C119.014 11.3171 117.397 15.7306 117.187 17.9045C117.162 18.1568 117.163 18.8907 117.172 19.5633C117.082 19.5496 116.992 19.5511 116.904 19.5687C116.313 16.8635 115.841 14.1235 115.466 11.3789C116.87 10.8713 117.113 2.58838 116.178 1.409C114.088 -1.23179 112.613 2.58295 112.725 4.59912C112.856 6.97638 113.816 9.13889 114.958 11.0581C115.081 11.2613 115.046 11.2515 115.077 10.9683C115.095 11.1083 115.137 11.2116 115.198 11.2864C115.14 12.5377 115.025 13.8189 115.08 14.9262C115.238 18.0972 115.567 21.2868 116.044 24.417C116.161 25.1783 116.294 25.9334 116.443 26.682C115.314 25.602 113.792 24.6425 113.196 24.3424C111.651 23.5644 109.269 22.7244 107.733 24.0424ZM185.479 134.125C185.407 135.231 185.229 136.243 184.898 137.078C185.146 136.128 185.337 135.14 185.479 134.125Z"/>
</mask>
<path fill-rule="evenodd" clip-rule="evenodd" d="M109.83 8.52357C107.654 7.31155 104.752 8.71722 105.962 11.9213C107.259 15.3524 112.053 15.3948 114.76 15.3268C114.489 15.3108 113.617 12.1645 113.318 11.689C112.437 10.2865 111.168 9.27003 109.83 8.52357ZM134.908 70.0393C135.458 70.5665 134.953 70.0887 134.908 70.0393V70.0393ZM107.733 24.0424C106.46 25.1358 106.399 27.0663 107.439 28.373C108.678 29.9286 110.941 29.872 112.629 29.7204C113.393 29.6517 117.472 29.285 116.505 28.5354C116.58 28.567 116.735 28.6435 116.901 28.7476C116.991 29.1146 117.085 29.4804 117.182 29.8445C117.158 29.8602 117.138 29.8771 117.112 29.8928C117.14 29.8791 117.16 29.8643 117.184 29.8505C118.165 33.4898 119.561 36.955 121.389 40.1969C120.705 39.8944 119.997 39.6654 119.278 39.5635C117.15 39.2613 112.674 41.1183 115.054 44.2999C117.337 47.35 120.89 44.0777 123.48 43.6265C125.992 47.5641 128.762 51.3377 131.665 54.9853C131.487 55.0478 131.331 55.1782 131.242 55.3811C130.077 54.7176 128.864 53.7685 127.786 53.5115C126.231 53.1412 123.041 52.9167 121.866 54.48C120.42 56.4024 121.97 57.9638 123.678 58.3324C126.155 58.8672 129.397 57.5082 131.781 56.5899C132.053 56.6441 132.351 56.5545 132.529 56.3096C132.581 56.2903 132.634 56.2712 132.685 56.2527C135.625 59.8824 138.677 63.3923 141.711 66.8253C141.679 66.8234 141.646 66.8212 141.613 66.8192C140.821 66.2364 139.973 65.7582 139.052 65.5077C136.924 64.9251 134.42 64.9223 132.693 66.6517C130.972 68.3737 130.363 71.3853 132.143 73.3189C135.705 77.1894 140.955 68.3643 142.752 67.9959C145.835 71.448 149.094 74.6733 152.406 77.8336C152.03 77.705 151.644 77.6105 151.245 77.568C147.999 77.219 140.378 81.689 144.362 86.0869C147.835 89.9194 151.854 82.5429 154.652 79.9632C157.772 82.9087 160.909 85.834 163.958 88.8733C162.295 88.3775 160.688 88.3045 158.905 88.9094C157.061 89.5362 154.084 91.1003 155.25 93.8971C156.436 96.7413 160.011 95.4471 161.872 94.544C162.888 94.0516 164.923 92.3894 166.711 91.6892C171.576 96.8476 175.791 102.529 178.981 109.222C180.973 113.401 182.484 117.866 183.548 122.454C184.227 125.383 185.565 130.302 185.298 134.114C186.574 126.484 184.266 117.32 181.779 110.499C179.492 104.227 176.07 98.7218 172.061 93.7659C173.067 90.3684 181.534 85.4681 176.473 82.3115C173.785 80.6426 171.032 83.4119 170.444 86.3449C170.041 88.3604 170.656 90.8929 171.308 92.8491C170.047 91.3384 168.736 89.8762 167.385 88.4626C165.519 86.5089 163.607 84.6119 161.678 82.7387C164.857 79.384 167.867 69.7934 163.603 68.2249C157.307 65.9153 160.339 78.9972 160.778 81.4491C160.903 81.4573 161 81.415 161.071 81.3243C161.036 81.5489 160.995 81.789 160.945 82.0311C157.252 78.4647 153.503 74.9684 149.879 71.3168C150.205 71.0457 150.724 70.01 151.132 69.4587C152.053 68.2159 152.934 66.9177 153.578 65.4639C154.595 63.1664 155.576 59.5018 152.88 58.1504C149.948 56.678 148.554 60.8228 148.534 63.2954C148.52 65.0054 148.935 66.6299 149.151 68.3061C149.218 68.8288 148.958 71.1852 149.592 70.1715C149.563 70.5453 149.558 70.816 149.573 71.0079C148.922 70.349 148.277 69.683 147.635 69.0122C147.665 68.9275 147.687 68.8351 147.692 68.7281C147.726 67.9909 147.066 67.707 146.602 67.9229C145.756 67.0194 144.917 66.1044 144.094 65.1713C142.349 63.1945 140.578 61.1612 138.82 59.0847C139.201 58.7166 139.049 58.207 139.406 57.8163C139.762 57.4265 140.464 57.2109 140.883 56.8488C141.936 55.9375 142.81 54.6098 143.442 53.3032C144.485 51.1443 145.833 46.6154 142.785 45.5864C139.645 44.5241 138.051 48.8837 137.849 51.6093C137.809 52.1374 138.161 56.8952 138.431 58.6229C135.177 54.7637 131.977 50.7597 129.078 46.686C129.957 46.6769 132.449 44.6544 132.953 44.1025C134.183 42.7565 136.137 39.7822 133.982 38.2082C132.065 36.8122 129.703 38.8342 128.884 40.7993C128.749 41.1229 128.274 44.1346 128.237 45.4859C127.037 43.7584 125.893 42.0208 124.828 40.2775C124.117 39.1185 123.454 37.9289 122.833 36.714C122.982 36.6188 123.123 36.4529 123.256 36.2466C126.452 35.6375 130.527 30.0376 126.772 28.0893C124.985 27.1628 123.047 29.0752 122.171 30.6409C121.992 30.9612 121.701 32.5717 121.465 33.8419C119.678 29.8172 118.313 25.5562 117.274 21.1875C117.552 21.1099 117.788 20.8712 117.819 20.4607C119.371 19.4673 120.596 18.6401 121.679 16.7299C122.352 15.5434 123.564 12.8325 121.587 12.174C119.014 11.3171 117.397 15.7306 117.187 17.9045C117.162 18.1568 117.163 18.8907 117.172 19.5633C117.082 19.5496 116.992 19.5511 116.904 19.5687C116.313 16.8635 115.841 14.1235 115.466 11.3789C116.87 10.8713 117.113 2.58838 116.178 1.409C114.088 -1.23179 112.613 2.58295 112.725 4.59912C112.856 6.97638 113.816 9.13889 114.958 11.0581C115.081 11.2613 115.046 11.2515 115.077 10.9683C115.095 11.1083 115.137 11.2116 115.198 11.2864C115.14 12.5377 115.025 13.8189 115.08 14.9262C115.238 18.0972 115.567 21.2868 116.044 24.417C116.161 25.1783 116.294 25.9334 116.443 26.682C115.314 25.602 113.792 24.6425 113.196 24.3424C111.651 23.5644 109.269 22.7244 107.733 24.0424ZM185.479 134.125C185.407 135.231 185.229 136.243 184.898 137.078C185.146 136.128 185.337 135.14 185.479 134.125Z" fill="#F2F2F2" stroke="black" stroke-width="2" mask="url(#path-20-inside-1_2003_2030)"/>
<g opacity="0.7">
<path opacity="0.7" fill-rule="evenodd" clip-rule="evenodd" d="M152.17 83.4202C158.215 83.068 165.691 87.0304 166.336 94.4094C166.804 99.7708 166.659 105.117 167.384 110.47C167.964 114.749 169.19 118.856 170.862 122.753C172.47 126.501 175.806 129.691 176.674 133.695C177.227 136.246 176.917 139.834 176.154 142.33C175.227 145.364 175.72 145.124 177.568 147.67C181.189 152.658 184.449 157.774 186.755 163.733C190.076 172.315 192.253 182.347 191.02 191.741C190.864 192.934 190.678 197.215 189.215 197.514C187.581 197.849 188.345 195.4 188.432 194.609C188.988 189.563 189.482 185.152 188.811 180.026C186.224 160.251 173.591 147.222 165.365 130.439C164.913 129.573 163.959 127.512 163.295 126.153C162.247 124.006 161.193 119.921 159.775 118.329C157.103 115.331 159.559 121.359 160.08 122.51C160.738 123.966 161.462 125.513 162.137 126.789C165.223 132.702 168.668 139.156 171.855 145.251C158.07 148.778 148.361 130.167 144.662 117.932C141.614 107.851 137.967 84.2827 152.17 83.4202Z" fill="#69A1AC"/>
<path opacity="0.7" fill-rule="evenodd" clip-rule="evenodd" d="M191.593 189.063H189.885C190.003 186.656 190.16 184.254 190.518 181.875C191.888 172.774 196.172 159.407 205.568 157.93C205.915 157.875 207.19 157.866 208.734 157.968C209.467 157.508 210.287 157.231 211.15 157.167C219.15 156.504 228.084 163.752 231.943 171.294C235.054 177.375 234.53 185.36 232.608 191.82C231.322 196.145 228.513 202.312 223.831 202.372C217.972 202.447 217.689 194.316 217.576 189.562C217.425 183.242 216.714 177.736 212.279 173.428C211.246 172.425 210.116 171.542 209.072 170.552C207.437 169.003 205.631 167.417 205.42 164.855C205.13 161.319 206.907 160.683 209.62 161.34C210.083 161.451 214.742 163.799 214.052 161.944C213.842 161.377 213.072 160.927 212.101 160.591C209.589 160.284 206.592 159.928 205.731 160.141C196.434 162.431 192.815 176.892 191.853 186.08C191.75 187.071 191.666 188.066 191.593 189.063Z" fill="#69A1AC"/>
</g>
<path fill-rule="evenodd" clip-rule="evenodd" d="M178.666 79.2448C181.449 75.5763 183.333 71.0806 183.018 66.043C182.111 51.5282 164.119 54.7213 160.619 62.0471C157.119 69.3729 157.535 87.9554 162.058 89.2647C163.862 89.7869 167.705 88.5078 171.616 85.8605L169.161 105.364H183.656L178.666 79.2448Z" fill="#B28B67"/>
<path fill-rule="evenodd" clip-rule="evenodd" d="M189.338 61.2112C189.806 60.6902 190.061 59.9465 190.282 59.2404C190.512 58.5068 190.734 57.7657 190.887 57.0022C191.191 55.4767 191.194 53.7223 190.225 52.5378C189.448 51.5878 188.281 51.1618 187.205 51.0692C186.488 51.0074 185.752 51.1202 185.064 51.374C184.382 51.6257 183.794 52.1274 183.133 52.4388C183.108 50.7949 182.857 49.0747 182.115 47.671C181.4 46.3204 180.26 45.5625 178.963 45.362C177.631 45.1562 176.316 45.5062 175.123 46.2303C174.825 46.4116 174.529 46.6016 174.246 46.8166C174.009 46.9967 173.763 47.2135 173.485 47.2868C173.175 47.3685 173.021 47.1674 172.819 46.9135C172.583 46.6157 172.317 46.3535 172.036 46.121C170.79 45.0931 169.156 44.6705 167.714 45.2866C167.049 45.5704 166.403 46.0525 165.952 46.7168C165.55 47.309 165.263 48.2483 164.708 48.6608C164.473 48.836 164.307 48.604 164.092 48.4325C163.77 48.1748 163.463 47.8905 163.137 47.6398C162.68 47.2876 162.184 47.0242 161.653 46.8864C160.876 46.6845 159.803 46.7318 159.58 47.8745C159.497 48.3038 159.561 48.7628 159.588 49.1953C159.625 49.7891 159.664 50.3828 159.709 50.9757C159.744 51.4259 159.788 51.8608 159.864 52.3029C159.904 52.5386 160.031 52.9779 159.941 53.2139C159.828 53.5089 159.309 53.3412 159.087 53.3515C158.649 53.3718 158.21 53.458 157.805 53.6682C157.491 53.8311 157.161 54.0707 157.028 54.4747C156.947 54.7229 156.968 54.9778 157.007 55.2331C157.053 55.5395 157 55.702 156.966 56.0112C156.377 55.6859 154.339 54.9631 154.082 56.147C153.997 56.5412 154.191 56.9866 154.34 57.3191C154.6 57.9022 154.941 58.4352 155.29 58.9434C156.018 60.0038 156.886 60.9183 157.821 61.7004C156.726 62.247 156.44 63.8593 157.388 64.8198C157.806 65.2439 158.369 65.3384 158.897 65.3112C159.09 65.3013 159.369 65.2179 159.521 65.2557C159.603 65.276 159.69 65.3539 159.804 65.3626C160.549 65.4199 161.39 65.2183 162.118 65.0326C163.416 64.7018 164.645 64.0113 165.648 62.9597C165.906 62.69 166.118 62.5347 166.465 62.5386C166.768 62.5421 167.066 62.6356 167.369 62.6442C168.172 62.6672 168.895 62.2266 169.641 61.9334C169.686 63.0639 169.973 64.309 170.385 65.3261C170.721 66.1555 171.422 66.276 172.111 66.3487C174.315 66.5816 176.526 66.3217 178.732 66.3252C176.597 66.8673 174.389 67.0908 172.273 67.7288C171.316 68.0171 172.046 68.7413 172.456 69.2434C173.129 70.0701 173.63 71.0944 173.978 72.1736C175.022 70.6442 176.869 69.6364 178.505 70.1063C180.313 70.6253 181.586 73.3707 180.43 75.3444C179.759 76.4902 178.547 76.9325 177.539 77.4248C178.325 78.3433 178.516 79.6999 178.989 80.8427C179.223 81.4062 179.55 82.0434 180.073 82.2397C180.266 82.3124 180.493 82.3186 180.645 82.4955C180.834 82.7145 180.879 82.9594 181.12 83.1476C182.082 83.8989 183.585 83.841 184.438 82.8606C185.21 81.9739 185.009 80.5708 184.365 79.6718C185.39 79.1919 187.258 78.5745 186.851 76.7806C189.073 76.6149 194.468 72.5681 191.485 69.611C193.122 68.5722 194.626 66.0337 193.574 63.796C192.765 62.0728 190.882 61.3026 189.338 61.2112Z" fill="#7E7267"/>
<path fill-rule="evenodd" clip-rule="evenodd" d="M209.855 190.145L163.195 190.145L157.081 274.247H226.538L209.855 190.145Z" fill="#C5CFD6"/>
<path fill-rule="evenodd" clip-rule="evenodd" d="M209.855 190.145H195.504L186.915 274.247H226.538L209.855 190.145Z" fill="black" fill-opacity="0.1"/>
<path fill-rule="evenodd" clip-rule="evenodd" d="M109.999 175.736C105.025 172.381 96.678 176.691 96.6837 181.489C96.7009 195.844 108.367 263.497 108.976 267.774C109.585 272.051 116.11 273.181 116.489 267.788C117.094 259.208 118.217 229.505 117.093 215.757C116.63 210.082 116.13 204.677 115.638 199.855C121.76 212.269 131.227 230.043 144.039 253.176L150.995 249.608C145.533 229.399 141.054 215.132 137.559 206.807C131.573 192.552 125.961 180.345 123.599 176.045C119.884 169.282 113.417 171.641 109.999 175.736Z" fill="#B28B67"/>
<path fill-rule="evenodd" clip-rule="evenodd" d="M150.498 238.385L126.624 174.875C120.905 164.544 104.87 176.978 106.82 182.97C111.248 196.574 133.768 240.616 135.087 244.669L150.498 238.385Z" fill="#8E97FD"/>
<path fill-rule="evenodd" clip-rule="evenodd" d="M151.823 245.603C153.311 246.977 154.278 248.1 154.726 248.971C155.27 250.03 155.908 251.678 156.638 253.914C155.544 254.623 145.71 260.999 127.137 273.041C124.907 270.692 124.56 268.868 126.095 267.571C127.63 266.273 128.896 265.178 129.895 264.287L140.078 248.532C140.274 248.229 140.651 248.162 140.921 248.382C140.926 248.386 140.93 248.389 140.935 248.393L143.051 250.223C144.992 250.033 146.44 249.628 147.396 249.008C148.173 248.504 149.064 247.457 150.071 245.865L150.071 245.865C150.457 245.254 151.211 245.11 151.755 245.544C151.778 245.563 151.801 245.582 151.823 245.603Z" fill="#E4E4E4"/>
<path fill-rule="evenodd" clip-rule="evenodd" d="M118.017 264.346C118.692 266.371 119.03 267.887 119.03 268.893C119.03 270.116 118.849 271.901 118.486 274.247C117.222 274.247 105.867 274.247 84.4207 274.247C83.5355 270.961 84.0465 269.186 85.9537 268.924C87.861 268.662 89.4454 268.426 90.7069 268.214L106.54 260.288C106.845 260.135 107.202 260.289 107.338 260.631C107.34 260.637 107.342 260.643 107.344 260.649L108.362 263.421C110.128 264.346 111.563 264.809 112.666 264.809C113.563 264.809 114.802 264.402 116.382 263.589L116.382 263.589C116.989 263.276 117.706 263.575 117.984 264.256C117.996 264.286 118.007 264.316 118.017 264.346Z" fill="#E4E4E4"/>
<path fill-rule="evenodd" clip-rule="evenodd" d="M95.0105 186.369C95.0105 204.388 102.631 246.419 102.636 250.386L119.031 250.4C116.631 212.897 115.78 193.943 116.478 193.539C117.525 192.933 159.391 198.233 171.947 198.233C190.053 198.233 197.544 185.411 198.151 161.658H162.284C154.981 162.536 116.887 171.164 102.74 174.13C96.6837 175.4 95.0105 181.405 95.0105 186.369Z" fill="#8E97FD"/>
<path fill-rule="evenodd" clip-rule="evenodd" d="M156.695 119.404L135.732 106.51C132.245 101.861 128.811 98.2507 125.427 95.6785C124.393 95.1938 122.585 94.9004 124.276 98.2706C125.967 101.641 127.61 105.271 126.749 106.309C125.887 107.347 123.739 105.897 122.712 107.622C122.027 108.772 125.696 110.589 133.721 113.072L148.954 128.735L156.695 119.404ZM123.862 130.283L114.654 124.602C113.362 119.081 111.817 116.303 110.02 116.268C108.64 115.547 111.044 122.523 108.427 121.918C105.81 121.313 99.4227 115.979 98.3222 117.062C96.694 118.664 98.1458 123.585 99.8563 126.032C103.053 130.607 105.7 132.171 112.243 134.219C115.663 135.291 119.362 137.437 123.338 140.66L123.862 130.283Z" fill="#997659"/>
<path fill-rule="evenodd" clip-rule="evenodd" d="M166.905 116.531C159.562 116.444 149.77 114.703 139.322 107.255L135.219 117.531C142.426 125.562 152.559 132.161 161.42 131.882C168.402 131.661 171.971 122.177 166.905 116.531Z" fill="#B5F2FF"/>
<path fill-rule="evenodd" clip-rule="evenodd" d="M157.018 133.01C149.222 135.193 136.15 132.618 117.8 125.286C113.249 135.86 111.145 143.398 111.489 147.901C127.23 157.135 140.721 161.252 151.836 161.523C151.483 168.93 152.286 175.977 154.982 182.416C160.526 195.655 192.99 183.395 203.905 185.808C210.74 160.879 197.524 150.748 197.513 134.797C197.502 117.329 185.012 90.4424 183.174 90.4424L166.416 90.4424C165.491 103.783 160.837 118.485 157.018 133.01Z" fill="#B5F2FF"/>
</svg>
