<svg width="315" height="253" viewBox="0 0 315 253" fill="none" xmlns="http://www.w3.org/2000/svg">
<path d="M229.532 12.8671C226.46 4.66533 223.255 -3.89202 201.556 1.89614C189.905 5.00387 180.138 15.9846 172.154 32.2912C166.147 45.2598 161.072 62.0298 157.023 82.1366C148.75 123.222 145.264 176.37 146.893 228.043L143.283 228.157L143.235 226.599C142.133 189.285 143.68 151.275 147.762 117.576C130.397 99.5279 110.604 85.3027 96.1814 80.5781C62.0026 73.0415 52.9731 92.9522 53.197 110.714C53.2378 113.961 54.3731 116.662 55.5162 119.383C56.6985 122.197 57.8896 125.032 57.8896 128.515C57.8896 130.825 52.7243 135.596 46.0098 141.798C32.809 153.992 13.6209 171.716 15.9239 187.14C18.0522 201.394 31.5493 212.218 43.9724 218.036C45.1888 218.606 46.5135 219.665 48.1076 220.938C49.2409 221.844 50.5109 222.859 51.9745 223.883L52.087 223.962C53.2368 224.754 55.1343 225.871 57.7802 227.314L58.5961 227.757C96.0235 247.947 139.461 234.345 152.997 229.324L153.787 229.028L249.773 227.959L249.761 227.884C249.735 227.727 249.692 227.495 249.637 227.194C248.734 222.305 244.497 199.336 253.52 190.08C281.7 161.174 312.6 78.4499 270.587 43.7849C261.303 36.1245 252.09 31.467 245.015 27.8907C240.718 25.7186 237.209 23.9449 234.951 22.1387C232.171 19.9145 230.864 16.4243 229.532 12.8671Z" fill="#2C2E5C"/>
<path fill-rule="evenodd" clip-rule="evenodd" d="M91.1841 228.281C91.1841 228.281 68.4629 218.774 68.4629 205.539C68.4629 201.656 70.8915 202.029 75.7492 206.658C76.2776 207.161 77.0342 207.934 78.0198 208.976C78.6231 209.615 64.9872 193.056 71.8581 189.959C78.556 186.94 80.114 202.614 80.4639 202.398C80.853 202.157 80.7395 197.415 82.2897 195.318C83.1247 194.188 85.5807 193.947 87.439 195.318C97.2009 202.521 91.1841 228.281 91.1841 228.281Z" fill="white"/>
<path fill-rule="evenodd" clip-rule="evenodd" d="M87.1918 135.087C87.1918 135.087 82.0167 121.893 86.8073 122.933C91.5979 123.973 90.2195 139.31 90.2195 139.31L87.1918 135.087Z" fill="white"/>
<path fill-rule="evenodd" clip-rule="evenodd" d="M83.7166 125.477C83.7842 127.616 84.6986 130.899 86.4543 135.376C86.4785 135.437 86.51 135.494 86.5482 135.548L89.5759 139.771C90.0032 140.367 90.9414 140.111 91.007 139.381L91.0617 138.749C91.9132 128.522 90.6844 122.965 86.9745 122.16C84.8163 121.691 83.6381 122.982 83.7166 125.477ZM86.719 123.725C89.0238 124.317 90.0951 128.593 89.627 136.62L89.5976 137.086L87.891 134.705L87.5927 133.931C86.1178 130.056 85.3546 127.208 85.2983 125.427L85.2942 125.178C85.2906 123.829 85.6611 123.494 86.639 123.707L86.719 123.725Z" fill="#00160A"/>
<path fill-rule="evenodd" clip-rule="evenodd" d="M68.9172 189.159C65.5839 190.662 65.8146 194.452 68.3593 199.617L68.5544 200.007C69.0199 200.922 69.5509 201.868 70.1387 202.837L70.341 203.168L70.3157 203.151C69.3641 202.518 68.543 202.148 67.837 202.039C65.9611 201.751 65.0049 203.133 65.0049 205.539C65.0049 214.802 72.8274 222.631 88.2648 229.09C88.7654 229.3 89.3341 229.009 89.4575 228.48C93.5411 210.999 92.2556 199.686 85.379 194.612C83.2694 193.055 80.2189 193.152 79.0036 194.796L78.8983 194.945C78.3812 195.705 78.021 196.704 77.7537 197.948L77.7418 198.003L77.7072 197.866C77.5173 197.122 77.3166 196.42 77.089 195.717C76.3355 193.386 75.4345 191.555 74.3043 190.329C72.816 188.717 70.9664 188.235 68.9172 189.159ZM76.4687 200.275L76.8537 202.091L76.8986 202.28C76.9264 202.394 76.9522 202.486 76.9786 202.564C77.0137 202.669 77.0508 202.755 77.1086 202.848C77.1814 202.962 77.2712 203.062 77.4141 203.148C77.6923 203.317 78.0499 203.326 78.3446 203.144C78.7239 202.91 78.8168 202.709 78.9205 202.045L78.969 201.714C79.0036 201.469 79.129 200.427 79.1502 200.262C79.2343 199.604 79.3184 199.061 79.4221 198.543C79.6647 197.329 79.9918 196.411 80.4145 195.839C80.993 195.057 82.9432 194.995 84.3371 196.024L84.5198 196.161C90.3198 200.629 91.5749 210.746 88.0899 226.58L87.982 227.064L87.6254 226.909C73.652 220.815 66.7595 213.672 66.7595 205.539C66.7595 204.062 67.0175 203.689 67.5707 203.774C68.5497 203.924 70.26 205.098 72.5631 207.293L72.8578 207.578C73.2087 207.923 73.6402 208.363 74.1505 208.895L74.8307 209.609C74.8426 209.62 74.8601 209.636 74.8947 209.667L74.9061 209.694C74.9329 209.738 75.0196 209.754 75.5945 209.861L75.7952 209.79C76.0321 209.7 76.0698 209.641 76.2716 209.324L76.3175 209.132C76.3454 209.005 76.3412 208.975 76.3268 208.866L76.2881 208.71C76.2798 208.68 76.2736 208.664 76.2628 208.641L76.254 208.623C76.2303 208.572 76.2169 208.546 76.1947 208.512L75.9557 208.191L75.3478 207.386C75.2436 207.246 75.1383 207.104 75.0217 206.946C74.0215 205.588 73.0518 204.186 72.1405 202.739C71.2864 201.383 70.5417 200.076 69.9328 198.841C67.7859 194.484 67.6146 191.671 69.6381 190.759C72.0729 189.661 73.9426 191.687 75.4195 196.256C75.821 197.498 76.1389 198.749 76.4687 200.275Z" fill="#00160A"/>
<path fill-rule="evenodd" clip-rule="evenodd" d="M71.6379 119.537L72.3583 120.193C81.2949 128.35 87.5166 134.859 90.8328 139.376C96.622 147.259 101.287 155.436 105.218 164.094C106.616 167.172 107.88 170.218 109.127 173.453L109.466 174.34C109.855 175.362 110.231 176.37 110.64 177.489L112.384 182.302C117.102 195.22 115.541 195.85 111.049 183.285L109.284 178.412C108.915 177.399 108.577 176.484 108.236 175.581L107.98 174.905C106.634 171.366 105.28 168.076 103.77 164.752C99.8825 156.189 95.2715 148.106 89.5514 140.317L89.2893 139.964C85.8915 135.439 79.5832 128.898 70.5691 120.714C70.244 120.419 70.2197 119.916 70.5149 119.591C70.8101 119.266 71.3127 119.242 71.6379 119.537ZM50.7213 101.519L61.8497 111.018C62.8932 111.913 63.706 112.614 64.0941 112.956C64.4238 113.246 64.4553 113.748 64.1648 114.078C63.8747 114.407 63.3721 114.439 63.0428 114.148L60.1467 111.652C56.301 108.357 50.229 103.19 49.6872 102.726C49.3538 102.441 49.3146 101.939 49.6005 101.605C49.8858 101.272 50.3874 101.233 50.7213 101.519Z" fill="#00160A"/>
<path fill-rule="evenodd" clip-rule="evenodd" d="M66.6425 232.926C64.65 234.073 65.4617 235.268 69.7585 237.175C74.3948 239.26 83.0244 243.285 97.8457 244.418C120.803 246.175 141.705 242.861 168.092 242.861C204.623 242.861 220.658 250.888 233.444 249.037C267.719 244.074 275.484 234.444 265.258 231.959C254.032 229.23 218.351 229.564 206.34 228.779L202.623 228.541L199.43 228.461C164.857 227.612 109.44 228.461 98.6172 228.461C76.538 228.461 66.6425 232.926 66.6425 232.926Z" fill="white"/>
<path fill-rule="evenodd" clip-rule="evenodd" d="M168.092 242.862C204.623 242.862 220.658 251.166 233.444 249.315C267.719 244.352 275.483 234.444 265.258 231.959C254.032 229.231 213.252 228.345 203.211 228.562C203.211 228.562 249.374 237.092 246.904 239.917C239.549 248.329 221.234 238.164 187.971 238.461C181.118 238.522 168.092 242.862 168.092 242.862Z" fill="#E7EAEE"/>
<path fill-rule="evenodd" clip-rule="evenodd" d="M100.808 228.822C99.9193 228.827 99.205 228.829 98.6173 228.829L97.6094 228.831C83.2556 228.899 72.7863 230.407 66.1569 233.399L66.0532 233.452C64.505 234.343 63.9116 235.657 64.8848 237.005C65.5139 237.877 66.8309 238.701 69.0546 239.702L70.9444 240.547C73.3029 241.591 74.7014 242.157 76.8012 242.896L77.0293 242.976C83.0864 245.091 89.8086 246.536 97.756 247.144C103.403 247.576 109.158 247.725 115.467 247.637L117.675 247.599C121.823 247.513 125.356 247.367 131.812 247.021L142.97 246.403C153.603 245.827 160.09 245.597 167.748 245.591H168.092C181.799 245.591 192.995 246.634 205.414 248.667L206.492 248.847C208.363 249.172 218.655 250.985 221.497 251.394L221.595 251.408C226.554 252.105 230.223 252.245 233.613 251.754L234.561 251.615C249.956 249.314 261.081 245.887 266.699 242.096C272.312 238.308 271.804 233.969 265.723 232.407L265.538 232.36C260.487 231.133 250.902 230.451 236.007 230.005L232.952 229.919C232.062 229.895 231.142 229.871 230.174 229.848L217.208 229.547C212.214 229.424 209.153 229.318 206.835 229.177L202.699 228.912L199.459 228.829L196.167 228.755C186.619 228.556 175.216 228.46 162.163 228.453H158.282C149.186 228.458 139.771 228.503 129.26 228.581L100.808 228.822ZM165.198 230.817C178.227 230.839 189.523 230.953 198.864 231.177L202.593 231.27L206.833 231.542C209.167 231.681 212.222 231.786 217.139 231.907L229.629 232.196C231.101 232.231 232.462 232.266 233.767 232.302L236.826 232.392C251.025 232.833 260.254 233.506 264.98 234.655L265.263 234.726C269.183 235.755 269.311 237.485 265.379 240.139C260.001 243.768 237.928 253.489 222.329 250.175L221.611 250.074C218.314 249.583 207.264 247.105 206.614 246.997L205.012 246.735C193.051 244.809 182.133 243.799 168.973 243.756H167.059C159.19 243.777 152.411 244.039 140.894 244.677L132.902 245.122C125.172 245.543 121.486 245.694 116.677 245.781L116.29 245.788C91.8997 246.735 77.0293 241.053 77.0293 241.053C75.0828 240.358 70.0465 238.609 70.0465 238.609L69.6718 238.437C57.9221 234.448 83.5751 231.257 97.6305 231.192L102.012 231.175L127.465 230.956C139.314 230.864 149.747 230.814 159.838 230.813L165.198 230.817Z" fill="#00160A"/>
<path fill-rule="evenodd" clip-rule="evenodd" d="M219.401 211.783C219.401 211.783 219.339 215.282 220.417 216.902C221.494 218.521 224.498 223.026 227.292 224.211C228.153 224.576 231.438 224.622 233.413 225.776C237.379 228.093 238.262 232.268 233.413 233.152C223.786 234.907 220.417 229.833 220.417 229.833C220.417 229.833 216.451 224.211 212.476 220.482C208.501 216.754 205.334 215.631 205.334 215.631" fill="white"/>
<path fill-rule="evenodd" clip-rule="evenodd" d="M208.073 141.623C208.073 141.623 205.432 134.087 198.646 132.046C196.489 131.397 205.922 145.633 197.597 150.944C194.998 152.602 190.377 153.461 184.691 154.271C159.345 157.879 151.703 148.421 136.057 143.803C129.784 141.951 99.2679 133.758 94.6537 175.49C91.7659 201.61 113.64 209.706 133.243 213.856C172.513 222.171 232.688 218.894 251.455 191.49C273.825 158.823 239.443 130.375 234.598 127.368C233.425 126.64 236.789 135.976 237.163 140.698C237.536 145.419 234.598 147.136 234.598 147.136C234.598 147.136 233.44 142.137 223.202 141.279C212.964 140.422 208.073 141.623 208.073 141.623Z" fill="white"/>
<path fill-rule="evenodd" clip-rule="evenodd" d="M100.615 154.857C100.615 154.857 102.348 152.448 103.323 151.252C104.297 150.056 105.342 149.055 105.342 149.055C105.342 149.055 81.8054 146.713 73.6526 140.644C63.0068 132.72 53.4565 119.577 43.8371 116.797C32.3377 113.474 28.0812 121.182 24.7645 121.81C14.66 123.725 -3.84639 129.173 4.61584 145.629C7.22841 150.709 15.6916 153.071 21.6537 150.239C28.3088 147.078 36.5044 139.334 45.1242 139.334C55.0919 139.334 56.8275 147.499 69.4808 151.829C77.247 154.486 100.615 154.857 100.615 154.857Z" fill="white"/>
<path fill-rule="evenodd" clip-rule="evenodd" d="M128.64 213.087C128.64 213.087 134.386 219.359 136.767 223.394C139.148 227.429 138.313 229.618 141.619 231.483C146.584 234.285 151.702 233.578 153.98 232.088C156.257 230.598 154.121 226.785 149.347 226.785C148.173 226.785 146.792 224.088 146.123 222.304C145.454 220.521 145.76 216.131 145.76 216.131L128.64 213.087Z" fill="white"/>
<path fill-rule="evenodd" clip-rule="evenodd" d="M235.664 128.947C235.664 128.947 273.103 174.867 220.454 201.82C183.632 220.672 123.137 210.494 123.137 210.494C123.137 210.494 188.993 228.198 232.037 206.853C259.502 193.234 264.934 170.083 251.832 146.512C248.403 140.344 235.664 128.947 235.664 128.947Z" fill="#E7EAEE"/>
<path fill-rule="evenodd" clip-rule="evenodd" d="M233.465 126.658C233.937 126.033 234.672 126.025 235.221 126.365C236.988 127.462 240.186 130.118 243.262 133.233C247.53 137.556 251.342 142.455 254.264 147.735C262.267 162.191 261.552 177.326 251.396 192.156C242.42 205.264 224.858 213.176 200.205 216.72C178.643 219.819 153.682 219.39 132.998 215.011L131.961 214.788C120.124 212.204 111.397 208.921 104.795 203.847C96.1358 197.193 92.096 187.882 93.4806 175.36C95.5764 156.405 103.07 145.87 114.367 142.18C118.566 140.808 123.064 140.471 127.706 140.929C130.889 141.243 133.562 141.835 136.392 142.67L136.894 142.821C139.969 143.753 142.584 144.783 146.62 146.57L149.602 147.906C155.783 150.677 159.36 151.991 163.99 152.924C169.817 154.099 176.232 154.237 184.016 153.173L185.17 153.009C191.524 152.083 194.934 151.242 196.962 149.948C199.336 148.434 200.184 145.979 199.845 142.581C199.69 141.034 199.306 139.403 198.7 137.501L198.533 136.989C198.271 136.212 197.507 134.029 197.367 133.555C197.192 132.967 197.112 132.558 197.141 132.178C197.212 131.223 198.049 130.634 198.986 130.915C203.936 132.404 207.492 136.728 209.675 143.737C209.869 144.359 209.521 145.021 208.899 145.215C208.277 145.409 207.615 145.062 207.421 144.439C205.759 139.103 203.332 135.633 200.153 133.937L199.944 133.829L200.804 136.336L200.827 136.407C203.009 145.713 201.388 153.009 186.712 155.264C185.904 155.388 169.675 156.785 162.936 155.117C152.728 152.591 138.239 143.164 129.554 142.821C120.869 142.478 118.959 143.164 115.1 144.424C104.746 147.807 96.1337 158.763 94.3956 176.858C93.4781 186.412 98.6392 196.094 107.103 202.058C128.64 217.236 178.586 217.958 199.869 214.898C223.931 211.44 241.956 203.27 250.48 190.823C260.092 176.787 259.795 162.601 252.199 148.878C249.389 143.802 245.708 139.07 241.582 134.892C239.702 132.988 237.78 131.267 236.22 130.013L235.958 129.804L236.186 130.703L236.917 133.512L237.184 134.565C237.225 134.73 237.265 134.893 237.305 135.052L237.444 135.63C237.937 137.705 238.238 139.315 238.339 140.604C238.622 144.166 237.59 146.755 235.194 148.155C234.631 148.484 233.908 148.294 233.579 147.732C233.25 147.169 233.44 146.446 234.003 146.117C235.524 145.228 236.202 143.524 235.986 140.79C235.896 139.648 235.613 138.134 235.144 136.162L235.011 135.613C234.954 135.379 234.894 135.138 234.831 134.887L233.802 130.912C233.649 130.31 233.534 129.837 233.442 129.425L233.415 129.303C233.258 128.587 233.176 128.075 233.171 127.689C233.166 127.293 233.223 126.979 233.465 126.658Z" fill="#00160A"/>
<path fill-rule="evenodd" clip-rule="evenodd" d="M207.978 140.323L208.822 140.181C214.391 139.262 218.884 138.931 222.319 139.191C225.942 139.465 229.783 140.445 233.841 142.124C234.377 142.346 234.632 142.96 234.41 143.495C234.188 144.03 233.575 144.285 233.039 144.063C229.177 142.465 225.55 141.54 222.16 141.283C218.753 141.025 214.139 141.392 208.335 142.391C207.764 142.489 207.221 142.107 207.123 141.535C207.024 140.964 207.408 140.422 207.978 140.323Z" fill="#00160A"/>
<path fill-rule="evenodd" clip-rule="evenodd" d="M214.69 135.614C217.203 135.098 219.499 135.365 221.547 136.423C223.507 137.435 225.206 138.709 226.639 140.243C226.939 140.564 226.922 141.067 226.601 141.367C226.28 141.667 225.777 141.65 225.477 141.329C224.17 139.93 222.618 138.765 220.817 137.835C219.103 136.95 217.178 136.726 215.01 137.172C214.58 137.26 214.159 136.983 214.071 136.553C213.983 136.123 214.26 135.702 214.69 135.614Z" fill="#00160A"/>
<path fill-rule="evenodd" clip-rule="evenodd" d="M219.772 131.451C219.997 131.074 220.486 130.951 220.862 131.176C222.878 132.382 224.547 133.731 225.866 135.225C227.197 136.734 228.29 138.662 229.15 141.005C229.301 141.417 229.09 141.874 228.678 142.025C228.265 142.176 227.809 141.965 227.657 141.553C226.862 139.385 225.866 137.628 224.673 136.277C223.468 134.912 221.927 133.666 220.046 132.541C219.669 132.316 219.547 131.827 219.772 131.451Z" fill="#00160A"/>
<path fill-rule="evenodd" clip-rule="evenodd" d="M196.737 150.341C197.069 149.867 197.724 149.752 198.199 150.084C198.673 150.416 188.543 164.843 188.543 167.642C188.543 170.678 190.033 172.71 194.006 175.913L195.688 177.252L196.178 177.644C198.64 179.633 200.074 181.029 201.293 182.801C202.996 185.277 203.798 188.042 203.594 191.321C203.342 195.365 202.122 198.16 199.704 201.386L199.485 201.674C199.213 202.025 198.016 203.554 197.689 204.002C196.519 205.599 195.968 206.802 195.868 208.214C195.427 214.436 198.354 221.95 204.713 230.727C205.053 231.196 204.948 231.852 204.479 232.192C204.009 232.532 203.353 232.427 203.013 231.958C196.392 222.818 193.293 214.863 193.775 208.066C193.903 206.262 194.56 204.768 195.839 202.978L195.996 202.762C196.372 202.248 197.745 200.496 197.861 200.345C200.164 197.323 203.493 192.902 200.827 184.489C199.485 180.253 186.738 177.252 186.319 168.235C186.221 166.111 189.762 160.298 196.737 150.341Z" fill="#00160A"/>
<path d="M200.595 193.963L199.131 193.979C190.462 194.09 185.19 194.527 183.562 195.225L183.502 195.251C181.107 196.35 179.223 197.839 177.783 199.624C176.664 201.01 175.875 202.496 175.358 203.98C175.204 204.422 175.085 204.835 174.995 205.211L174.936 205.478L177.443 208.691C177.467 208.723 177.491 208.756 177.511 208.79L177.535 208.824L177.614 208.94C178.156 209.725 178.771 210.493 179.562 211.389L179.926 211.794C180.576 212.503 182.644 214.732 183.347 215.535C184.85 217.251 186.116 218.903 187.328 220.798C189.176 223.688 190.806 227.025 192.27 231.067L192.375 231.362L192.48 231.665C192.608 232.039 192.733 232.424 192.869 232.857L193.486 234.884C194.399 237.87 195.036 239.242 196.047 240.073L196.216 240.209C197.54 241.24 198.775 241.495 202.205 241.604L203.208 241.632C207.769 241.756 210.148 238.135 207.538 235.503C206.72 234.677 204.021 234.038 199.605 233.769C199.027 233.734 199.57 232.244 199.605 231.665C199.64 231.087 200.138 230.647 200.716 230.682C201.228 230.713 201.719 230.748 202.19 230.789C196.343 222.314 193.488 215.091 193.942 208.691C194.07 206.888 193.876 206.183 195.155 204.392L195.399 204.058C195.865 203.436 197.069 201.9 197.177 201.759C198.161 200.467 198.848 199.409 199.398 198.253L199.506 198.021L199.542 197.938L199.603 197.803C199.893 197.141 200.199 195.999 200.512 194.399L200.595 193.963Z" fill="white"/>
<path fill-rule="evenodd" clip-rule="evenodd" d="M175.952 204.261C176.779 206.673 178.221 208.145 180.229 210.424L180.511 210.74C181.013 211.292 183.287 213.74 184.03 214.589C185.534 216.306 186.8 217.957 188.012 219.853C189.86 222.742 191.49 226.08 192.954 230.121C193.024 230.316 193.094 230.515 193.164 230.72L193.355 231.294C193.398 231.425 193.441 231.559 193.486 231.699L193.735 232.504C193.863 232.923 194.123 233.781 194.171 233.938L194.309 234.385C195.149 237.064 195.772 238.339 196.73 239.127L196.9 239.264C198.168 240.251 199.353 240.526 202.463 240.643L203.892 240.686C208.453 240.811 210.832 237.189 208.222 234.557C207.404 233.732 204.704 233.092 200.289 232.824C199.711 232.789 199.27 232.291 199.305 231.713C199.34 231.135 199.838 230.694 200.416 230.729L200.967 230.765C205.578 231.084 208.444 231.8 209.712 233.08C213.797 237.199 210.16 242.841 204.022 242.787L203.283 242.769C198.9 242.651 197.329 242.337 195.398 240.748C194.019 239.615 193.271 238.092 192.309 235.023L191.687 232.979L191.486 232.337C191.401 232.068 191.32 231.819 191.239 231.578L191.178 231.398C191.112 231.205 191.046 231.018 190.98 230.836C189.569 226.938 188.007 223.74 186.244 220.983C185.181 219.321 184.074 217.856 182.78 216.35L182.452 215.972C181.694 215.107 179.226 212.453 178.884 212.069C176.646 209.567 175.308 207.547 174.355 204.885L174.257 204.607C172.401 199.193 170.019 197.346 166.906 198.499C166.363 198.701 160.282 201.617 166.172 197.702C172.061 193.786 175.952 204.261 175.952 204.261Z" fill="#00160A"/>
<path fill-rule="evenodd" clip-rule="evenodd" d="M212.567 166.984C211.424 166.984 209.783 163.7 209.783 162.096C209.783 160.491 213.889 161.034 213.889 161.034C213.889 161.034 218.2 161.612 217.606 163.225C217.012 164.84 213.203 166.984 212.567 166.984Z" fill="#FFB61D"/>
<path d="M205.809 159.4C207.06 159.4 208.074 157.506 208.074 155.17C208.074 152.834 207.06 150.94 205.809 150.94C204.559 150.94 203.545 152.834 203.545 155.17C203.545 157.506 204.559 159.4 205.809 159.4Z" fill="#00160A"/>
<path d="M227.464 160.29C228.835 160.29 229.946 158.426 229.946 156.126C229.946 153.826 228.835 151.962 227.464 151.962C226.093 151.962 224.982 153.826 224.982 156.126C224.982 158.426 226.093 160.29 227.464 160.29Z" fill="#00160A"/>
<path fill-rule="evenodd" clip-rule="evenodd" d="M225.845 163.117C227.735 162.305 229.827 162.151 232.098 162.647C234.319 163.132 241.01 167.32 240.776 167.691C240.542 168.063 233.767 164.639 231.759 164.201C229.8 163.773 228.046 163.902 226.472 164.578C226.069 164.751 225.601 164.564 225.428 164.161C225.255 163.758 225.441 163.29 225.845 163.117Z" fill="#00160A"/>
<path fill-rule="evenodd" clip-rule="evenodd" d="M227.05 165.866C229.034 165.971 229.551 165.518 232.269 167.283C234.987 169.047 237.018 173.203 236.646 173.436C236.275 173.67 234.106 169.963 231.616 168.097C229.127 166.231 226.191 167.056 226.214 166.618C226.236 166.204 226.571 165.88 226.977 165.865L227.05 165.866Z" fill="#00160A"/>
<path fill-rule="evenodd" clip-rule="evenodd" d="M213.269 168.706C212.718 172.132 212.857 174.314 213.063 176.748C213.269 179.181 215.215 182.685 215.41 184.149C215.605 185.614 211.73 179.574 211.496 177.014C211.261 174.454 209.6 167.494 212.502 167.818C212.502 167.818 213.331 168.326 213.269 168.706Z" fill="#00160A"/>
<path fill-rule="evenodd" clip-rule="evenodd" d="M198.83 163.537C200.592 163.537 201.306 163.581 203.021 163.918C203.452 164.003 203.733 164.421 203.648 164.852C203.563 165.282 203.145 165.563 202.714 165.479C202.104 165.358 200.932 164.847 198.991 164.868C196.336 164.896 194.027 166.369 193.911 166.125C193.723 165.728 197.068 163.537 198.83 163.537Z" fill="#00160A"/>
<path fill-rule="evenodd" clip-rule="evenodd" d="M201.711 160.122C202.138 160.223 202.403 160.651 202.302 161.078C202.202 161.505 201.774 161.77 201.346 161.669C197.529 160.769 194.467 160.794 192.306 160.709C190.182 160.626 185.416 160.959 185.277 160.542C185.137 160.126 197.803 159.201 201.711 160.122Z" fill="#00160A"/>
<path fill-rule="evenodd" clip-rule="evenodd" d="M219.42 210.735C219.999 210.745 220.461 211.223 220.45 211.803C220.413 213.942 220.712 215.453 221.29 216.322C223.715 219.968 225.772 222.427 227.701 223.246C227.754 223.269 227.879 223.3 228.075 223.338L228.364 223.39C228.581 223.427 229.497 223.565 229.657 223.59C230.26 223.686 230.758 223.777 231.242 223.887C232.313 224.129 233.204 224.44 233.942 224.871C236.159 226.166 237.622 228.061 237.765 229.922C237.929 232.074 236.365 233.681 233.601 234.185C226.813 235.423 222.062 234.21 219.559 230.439C216.954 226.746 214.352 223.683 211.758 221.249C209.205 218.854 206.938 217.314 204.983 216.621C204.437 216.428 204.151 215.828 204.345 215.282C204.538 214.736 205.138 214.45 205.684 214.644C207.952 215.448 210.447 217.142 213.193 219.718C215.899 222.256 218.591 225.426 221.291 229.254C223.263 232.224 227.176 233.223 233.224 232.121C235.018 231.793 235.746 231.046 235.672 230.082C235.589 228.997 234.557 227.661 232.883 226.683C232.36 226.377 231.659 226.133 230.778 225.933C230.399 225.847 230.004 225.773 229.534 225.696L228.018 225.46L227.725 225.408C227.362 225.34 227.103 225.272 226.882 225.178C225.44 224.566 223.957 223.249 222.406 221.393C221.382 220.17 220.597 219.068 219.543 217.484C218.685 216.194 218.308 214.292 218.352 211.766C218.362 211.186 218.84 210.725 219.42 210.735Z" fill="#00160A"/>
<path fill-rule="evenodd" clip-rule="evenodd" d="M227.895 230.091C227.998 229.745 228.364 229.547 228.711 229.651C229.791 229.974 230.556 230.33 231.022 230.754C231.465 231.156 231.902 231.773 232.349 232.61C232.52 232.93 232.4 233.327 232.08 233.498C231.761 233.669 231.364 233.548 231.193 233.229C230.81 232.512 230.453 232.01 230.141 231.725C229.852 231.463 229.244 231.179 228.335 230.908C227.989 230.804 227.791 230.439 227.895 230.091Z" fill="#00160A"/>
<path fill-rule="evenodd" clip-rule="evenodd" d="M231.316 228.704C231.43 228.36 231.801 228.174 232.145 228.288C233.07 228.596 233.758 228.947 234.215 229.362C234.668 229.774 235.103 230.439 235.543 231.366C235.699 231.694 235.559 232.085 235.232 232.24C234.905 232.395 234.514 232.256 234.359 231.929C233.985 231.143 233.636 230.608 233.333 230.333C233.034 230.062 232.498 229.788 231.731 229.533C231.388 229.418 231.202 229.047 231.316 228.704Z" fill="#00160A"/>
<path fill-rule="evenodd" clip-rule="evenodd" d="M203.242 237.741C203.356 237.397 203.727 237.211 204.071 237.326C204.996 237.633 205.684 237.985 206.141 238.4C206.594 238.812 207.029 239.477 207.469 240.404C207.624 240.731 207.485 241.122 207.158 241.277C206.831 241.433 206.439 241.293 206.284 240.966C205.91 240.18 205.561 239.645 205.259 239.37C204.96 239.099 204.424 238.826 203.657 238.57C203.313 238.456 203.127 238.084 203.242 237.741Z" fill="#00160A"/>
<path fill-rule="evenodd" clip-rule="evenodd" d="M205.149 235.515C205.263 235.172 205.635 234.986 205.978 235.1C206.903 235.408 207.591 235.759 208.048 236.174C208.501 236.586 208.936 237.251 209.376 238.178C209.531 238.506 209.392 238.897 209.065 239.052C208.738 239.207 208.347 239.068 208.191 238.741C207.818 237.954 207.468 237.42 207.166 237.145C206.868 236.874 206.331 236.6 205.564 236.345C205.22 236.23 205.035 235.859 205.149 235.515Z" fill="#00160A"/>
<path fill-rule="evenodd" clip-rule="evenodd" d="M127.931 212.313C128.359 211.921 135.601 220.228 137.154 222.861C137.655 223.709 138.05 224.526 138.402 225.4C138.51 225.669 138.611 225.935 138.72 226.236L139.132 227.399C139.742 229.097 140.757 229.792 142.134 230.568C146.174 232.848 150.944 232.82 153.406 231.209C154.771 230.317 152.927 227.833 149.347 227.833C147.674 227.833 146.234 225.59 145.14 222.672C144.628 221.305 144.5 219.123 144.714 216.057C144.754 215.479 145.255 215.043 145.833 215.083C146.411 215.124 146.847 215.625 146.807 216.203C146.613 218.991 146.726 220.924 147.106 221.936L147.216 222.221C147.953 224.069 149.037 225.735 149.347 225.735C151.869 225.735 154.003 226.707 155.15 228.251C156.364 229.886 156.204 231.886 154.554 232.966C151.417 235.018 145.808 235.05 141.103 232.396C139.286 231.37 138.489 230.307 137.743 228.3L137.343 227.173C137.209 226.796 137.094 226.489 136.971 226.182C136.657 225.402 136.307 224.68 135.863 223.927C134.32 221.311 131.652 217.927 127.866 213.795C127.475 213.368 127.504 212.704 127.931 212.313Z" fill="#00160A"/>
<path fill-rule="evenodd" clip-rule="evenodd" d="M147.361 230.091C147.465 229.745 147.831 229.547 148.178 229.651C149.258 229.974 150.023 230.33 150.489 230.754C150.932 231.156 151.368 231.773 151.816 232.61C151.987 232.93 151.867 233.327 151.547 233.498C151.228 233.669 150.83 233.548 150.66 233.229C150.276 232.512 149.92 232.01 149.607 231.725C149.318 231.463 148.71 231.179 147.802 230.908C147.455 230.804 147.258 230.439 147.361 230.091Z" fill="#00160A"/>
<path fill-rule="evenodd" clip-rule="evenodd" d="M149.829 229.022C149.943 228.679 150.314 228.493 150.658 228.607C151.583 228.915 152.271 229.266 152.727 229.681C153.181 230.093 153.616 230.758 154.056 231.685C154.211 232.012 154.072 232.404 153.745 232.559C153.417 232.714 153.026 232.575 152.871 232.248C152.498 231.461 152.148 230.927 151.846 230.651C151.547 230.381 151.011 230.107 150.244 229.852C149.9 229.737 149.714 229.366 149.829 229.022Z" fill="#00160A"/>
<path fill-rule="evenodd" clip-rule="evenodd" d="M28.8728 118.04L28.6514 118.194C27.9491 118.684 26.597 119.671 26.2992 119.88L26.2688 119.901C25.4973 120.433 24.976 120.702 24.5689 120.779C17.375 122.142 11.1618 123.667 6.90881 126.888C0.961911 131.39 -2.25047 139.263 1.82425 147.187C4.72375 152.825 15.6854 154.236 22.1036 151.186C23.2018 150.665 24.3717 150.011 25.7832 149.148L26.3699 148.786C26.5727 148.66 26.7817 148.529 27.0037 148.388L28.5405 147.407L30.2208 146.331L30.8359 145.942C37.0132 142.061 40.9384 140.383 45.1241 140.383C48.5843 140.383 51.0191 141.332 54.0778 143.577L54.3085 143.747C54.8395 144.144 58.2863 146.894 59.4506 147.741C62.4664 149.937 65.4441 151.556 69.1407 152.821L69.4658 152.929C74.8762 154.68 85.2253 155.662 100.598 155.906C100.941 155.912 101.266 155.748 101.466 155.47L102.065 154.642C102.926 153.461 103.617 152.551 104.136 151.915C104.759 151.15 105.403 150.449 106.067 149.812C106.715 149.192 106.337 148.099 105.446 148.011L104.521 147.916C89.5163 146.356 79.4155 143.625 74.2791 139.802L73.9044 139.521C71.1652 137.45 68.5487 135.112 64.5611 131.286L59.4072 126.335C57.3698 124.394 56.6535 123.762 55.2261 122.55L55.0026 122.36C51.6652 119.53 48.7696 117.59 45.9612 116.433C45.3445 116.178 44.7345 115.964 44.1287 115.789C37.874 113.981 33.3843 114.986 28.8728 118.04ZM43.546 117.804C44.0765 117.958 44.6143 118.147 45.1613 118.373C47.6503 119.399 50.2848 121.143 53.3383 123.703L54.5335 124.718C55.849 125.849 56.7598 126.696 59.7912 129.609L63.3861 133.067C67.4578 136.965 70.1243 139.326 73.0261 141.486L73.1964 141.611C78.4675 145.44 88.043 148.131 101.972 149.747L103.111 149.876L103.095 149.894C102.963 150.044 102.833 150.198 102.703 150.354L102.417 150.703L102.198 150.977C101.782 151.503 101.288 152.156 100.714 152.936L100.084 153.798L98.8086 153.775C84.349 153.481 74.6594 152.492 69.8203 150.836C66.4695 149.689 63.7566 148.24 61.0147 146.282L60.6855 146.044C59.5687 145.231 56.1349 142.493 55.5641 142.066C52.0621 139.45 49.1773 138.284 45.1241 138.284C40.4254 138.284 36.2247 140.079 29.73 144.159L28.7319 144.792L26.5913 146.164C25.956 146.569 25.4539 146.886 24.9662 147.187L24.4239 147.519C23.1889 148.267 22.1578 148.838 21.2036 149.291C15.7623 151.876 7.90331 149.727 5.54888 145.149C1.9477 138.146 3.21478 132.999 8.3609 129.103C12.2922 126.126 18.0587 124.148 24.9595 122.841C25.682 122.704 26.3782 122.358 27.2865 121.747L27.4593 121.63C27.7287 121.444 29.3615 120.251 29.9844 119.822L30.0495 119.778C34.0789 117.049 37.9426 116.186 43.546 117.804Z" fill="#00160A"/>
<path fill-rule="evenodd" clip-rule="evenodd" d="M294.835 146.322L294.736 146.562L294.537 147.059C291.956 153.607 289.678 163.638 287.689 177.177L287.573 177.973L287.566 177.934C286.796 173.394 285.823 169.866 284.639 167.339C282.583 162.949 279.652 161.291 276.189 162.867C264.951 167.98 265.621 188.768 277.523 225.302C277.681 225.787 278.134 226.117 278.645 226.117H291.565C291.912 226.117 292.241 225.964 292.466 225.699C308.6 206.669 315.825 193.876 314.059 186.847L314.001 186.624C312.394 180.577 308.375 179.281 302.643 182.531L302.439 182.648L302.725 181.99C312.668 158.954 314.493 144.771 307.774 139.243C302.842 135.184 298.34 137.869 294.835 146.322ZM306.466 140.154C312.382 145.02 310.279 160.956 299.059 185.656C298.546 186.785 311.769 177.934 311.769 187.422L311.812 187.603C313.084 193.443 306.514 205.233 292.027 222.555L291.017 223.756L278.645 224.637C278.645 224.637 261.965 169.562 277.166 165.016C281.541 163.708 284.768 170.06 286.369 187.244C286.5 188.651 288.544 188.681 288.716 187.278L288.856 186.146C291.156 167.767 293.884 154.779 297.016 147.227L297.195 146.801C300.12 139.952 303.162 137.435 306.466 140.154Z" fill="#00160A"/>
<path d="M306.274 141.066C312.189 145.932 309.792 160.833 298.572 185.533C298.059 186.662 299.412 187.717 300.382 186.944L300.777 186.633C307.151 181.671 310.419 182.051 311.769 187.422L311.812 187.603C313.084 193.443 306.514 205.233 292.027 222.555L291.017 223.755H279.503L279.09 222.469C268.234 188.446 267.806 169.274 277.166 165.016C281.484 163.051 284.768 170.06 286.369 187.244C286.5 188.651 288.543 188.681 288.716 187.278L288.856 186.146C291.156 167.768 293.884 154.779 297.016 147.226L297.195 146.801C300.12 139.952 302.969 138.346 306.274 141.066Z" fill="white"/>
<path d="M275.514 184.262C277.832 184.262 279.711 182.383 279.711 180.065C279.711 177.747 277.832 175.868 275.514 175.868C273.196 175.868 271.317 177.747 271.317 180.065C271.317 182.383 273.196 184.262 275.514 184.262Z" fill="#E7EAEE"/>
<path d="M301.746 156.982C304.064 156.982 305.943 155.103 305.943 152.785C305.943 150.467 304.064 148.588 301.746 148.588C299.428 148.588 297.549 150.467 297.549 152.785C297.549 155.103 299.428 156.982 301.746 156.982Z" fill="#E7EAEE"/>
<path d="M303.844 197.38C306.162 197.38 308.042 195.501 308.042 193.183C308.042 190.865 306.162 188.986 303.844 188.986C301.527 188.986 299.647 190.865 299.647 193.183C299.647 195.501 301.527 197.38 303.844 197.38Z" fill="#E7EAEE"/>
<path fill-rule="evenodd" clip-rule="evenodd" d="M81.3923 229.032C73.9837 229.149 48.5067 231.037 48.067 230.092C47.504 228.882 75.2862 227.292 81.3417 227.196L83.2387 227.171C88.7451 227.111 81.3923 229.032 81.3923 229.032ZM190.368 226.576C191.02 226.559 191.562 227.073 191.579 227.725C191.597 228.377 191.082 228.919 190.431 228.936L179.886 229.196C173.324 229.348 165.716 229.503 154.476 229.725C153.824 229.738 153.285 229.22 153.273 228.568C153.26 227.916 153.777 227.377 154.43 227.364L174.334 226.959C180.377 226.828 185.231 226.712 190.368 226.576ZM217.565 226.026C218.217 226.016 218.754 226.536 218.764 227.188C218.774 227.84 218.254 228.376 217.602 228.387L214.836 228.421L206.373 228.479C204.601 228.497 203.214 228.521 201.579 228.562C200.927 228.578 200.386 228.062 200.37 227.41C200.354 226.758 200.869 226.217 201.521 226.201L203.603 226.157C204.966 226.132 206.351 226.116 208.191 226.103L215.228 226.056C216.047 226.048 216.787 226.039 217.565 226.026ZM294.066 223.756C294.066 223.756 296.185 223.39 311.658 224.548C312.308 224.597 312.796 225.163 312.747 225.813C312.699 226.463 305.047 226.135 294.587 226.117L291.71 226.121C284.03 226.155 276.895 226.363 265.053 226.851L250.106 227.482C243.728 227.743 239.922 227.871 235.295 227.979C234.644 227.995 234.103 227.479 234.087 226.828C234.072 226.176 234.588 225.635 235.24 225.62L238.956 225.523C243.376 225.395 247.918 225.216 255.971 224.873L264.511 224.51C277.863 223.958 285.288 223.756 294.066 223.756Z" fill="#00160A"/>
<path d="M258.298 53.8353L258.569 53.3378C260.686 49.5045 262.529 47.6013 264.679 48.2221C264.854 48.2722 265.025 48.3413 265.192 48.428C266.51 49.1108 266.826 50.3808 266.457 52.1142L266.432 52.2211L266.494 52.1318C267.119 51.2452 267.714 50.5604 268.331 50.0521L268.464 49.9457C269.837 48.877 271.293 48.7779 272.612 49.891C274.717 51.6684 274.478 54.6497 272.759 56.4843L272.664 56.5833C272.425 56.8249 272.281 57.3476 272.121 58.5779L271.982 59.656C271.815 60.8997 271.703 61.4452 271.441 62.2879C270.945 63.8794 270.133 65.2067 268.868 66.291C267.278 67.6539 264.594 67.464 260.814 65.9101C260.408 65.7434 260.214 65.279 260.38 64.8729C260.548 64.4667 255.078 59.6436 254.913 59.8552L254.86 59.9166C254.556 60.2329 254.052 60.2433 253.736 59.9388L252.967 59.1987C252.505 58.7523 252.736 57.9705 253.366 57.8467C254.521 57.6196 255.418 57.3698 256.048 57.1025C256.577 56.878 256.866 56.6638 256.934 56.5245C256.934 56.5245 258.082 54.2373 258.298 53.8353Z" fill="white"/>
<path fill-rule="evenodd" clip-rule="evenodd" d="M252.625 57.9268C251.285 57.8262 250.497 58.8449 250.497 60.0777C250.497 64.3466 257.471 70.1843 262.016 70.1843C263.348 70.1843 264.438 69.2317 264.051 67.7753C263.905 67.2262 263.569 66.7391 263.019 66.1389L262.898 66.0083C262.279 65.3514 261.639 64.7646 260.205 63.5302L258.007 61.6471C257.469 61.1806 256.611 60.4364 256.352 60.215L256.04 59.9498C255.439 59.4435 254.975 59.0745 254.56 58.7814C253.827 58.2633 253.26 57.9743 252.625 57.9268ZM252.087 60.0777C252.087 58.4088 254.478 60.7161 257.356 63.1855L259.269 64.8214C261.609 66.8392 264.466 68.9385 263.019 69.0923C258.436 69.5805 252.087 63.5023 252.087 60.0777Z" fill="#00160A"/>
<path fill-rule="evenodd" clip-rule="evenodd" d="M252.992 46.7402C253.32 46.4492 254.961 45.303 254.114 46.8078C253.267 48.3122 248.367 50.2206 253.267 57.8294C253.453 58.1189 253.226 58.6995 252.817 58.86C252.408 59.0204 251.947 58.8192 251.787 58.4105C250.548 55.2553 249.975 52.9712 250.085 51.4865C250.201 49.913 251.188 48.339 252.992 46.7402Z" fill="#00160A"/>
<path fill-rule="evenodd" clip-rule="evenodd" d="M246.87 49.3902C246.957 48.9598 247.806 47.8942 247.806 48.7668C247.806 49.6395 246.558 51.8529 248.315 54.347C250.071 56.8411 253.095 58.5328 252.836 58.8873C252.577 59.2424 252.08 59.3203 251.725 59.0617C249.182 57.2091 247.637 55.7595 247.055 54.6231C246.448 53.4377 246.406 51.7027 246.87 49.3902Z" fill="#00160A"/>
<path fill-rule="evenodd" clip-rule="evenodd" d="M258.298 53.8353L258.569 53.3378C260.686 49.5045 262.529 47.6013 264.679 48.2221C264.854 48.2722 265.025 48.3413 265.192 48.428C266.51 49.1108 266.826 50.3808 266.457 52.1142L266.432 52.2211L266.494 52.1318C267.119 51.2452 267.714 50.5604 268.331 50.0521L268.464 49.9457C269.837 48.877 271.293 48.7779 272.612 49.891C274.717 51.6684 274.478 54.6497 272.759 56.4843L272.664 56.5833C272.425 56.8249 272.281 57.3476 272.121 58.5779L271.982 59.656C271.815 60.8997 271.703 61.4452 271.441 62.2879C270.945 63.8794 270.133 65.2067 268.868 66.291C267.278 67.6539 264.594 67.464 260.814 65.9101C260.408 65.7434 260.214 65.279 260.38 64.8729C260.548 64.4667 266.271 67.7927 268.464 65.2072C270.657 62.6213 270.894 57.2733 271.527 55.6524L271.68 55.3696C272.892 54.1434 272.933 52.2433 271.586 51.1059C270.891 50.5191 270.261 50.5619 269.441 51.2003C268.694 51.7819 267.915 52.78 267.018 54.2327L266.755 54.6656C266.313 55.4108 265.429 56.9559 265.311 57.152L265.15 57.4194C264.605 58.309 263.911 58.8664 263.808 58.8906C263.705 58.9144 263.559 58.8318 263.522 58.0789C263.51 57.8317 263.573 57.5824 263.705 57.2434L263.758 57.1123C263.917 56.7242 264.795 54.8994 264.856 54.7689C265.122 54.194 265.336 53.6934 265.514 53.2207C266.228 51.3169 265.165 50.2043 264.46 49.8394C264.385 49.8002 264.311 49.7703 264.239 49.7496C263.147 49.4343 261.627 51.0553 259.853 54.3029L259.469 55.0212C259.185 55.5631 258.907 56.1209 258.36 57.2284C257.962 58.0335 256.901 58.6109 255.132 59.0764L255.035 59.1012L255.044 59.1244C255.122 59.3685 255.078 59.6436 254.913 59.8552L254.86 59.9166C254.556 60.2329 254.052 60.2433 253.736 59.9388L252.967 59.1987C252.505 58.7523 252.736 57.9705 253.366 57.8467C254.521 57.6196 255.418 57.3698 256.048 57.1025C256.577 56.878 256.866 56.6638 256.934 56.5245L257.677 55.0295C257.905 54.5774 258.082 54.2373 258.298 53.8353Z" fill="#00160A"/>
<path d="M268.73 57.7488C269.728 57.7488 270.536 57.0858 270.536 56.2679C270.536 55.4501 269.728 54.7871 268.73 54.7871C267.732 54.7871 266.924 55.4501 266.924 56.2679C266.924 57.0858 267.732 57.7488 268.73 57.7488Z" fill="#FFB61D"/>
<path d="M263.569 53.6199C264.566 53.6199 265.375 52.9569 265.375 52.139C265.375 51.3212 264.566 50.6582 263.569 50.6582C262.571 50.6582 261.763 51.3212 261.763 52.139C261.763 52.9569 262.571 53.6199 263.569 53.6199Z" fill="#FFB61D"/>
<path fill-rule="evenodd" clip-rule="evenodd" d="M131.109 204.505C129.804 210.654 123.506 212.398 123.574 217.348C123.609 219.909 124.316 222.033 124.896 223.667C126.077 226.987 129.152 230.408 130.577 233.576C131.794 236.283 137.902 234.452 138.39 238.658C138.656 240.95 134.335 242.27 133.159 242.359C131.471 242.487 129.331 241.907 126.74 240.62C123.589 239.089 121.059 237.883 119.228 235.676C118.871 235.246 118.646 234.031 118.252 232.121C117.819 230.031 116.343 224.718 112.486 216.139C111.934 214.914 109.826 209.9 107.48 204.772C105.545 200.539 113.544 192.061 117.09 192.358C125.802 193.086 132.031 200.162 131.109 204.505Z" fill="white"/>
<path fill-rule="evenodd" clip-rule="evenodd" d="M125.001 240.711C122.832 239.42 121.049 237.932 119.65 236.247C119.293 235.817 119.03 234.232 118.635 232.322C118.428 231.321 110.899 213.258 108.415 206.459C107.952 205.19 109.077 206.078 109.341 206.459C110.782 208.535 119.65 222.231 123.887 234.92" fill="#E7EAEE"/>
<path fill-rule="evenodd" clip-rule="evenodd" d="M126.692 240.172L127.014 240.331C129.451 241.542 131.418 242.075 132.886 241.963C134.464 241.844 137.038 240.422 137.152 239.211C137.335 237.267 136.809 236.716 134.208 235.733C133.454 235.448 131.414 235.511 128.271 235.986C127.698 236.073 127.163 235.679 127.077 235.106C126.99 234.533 127.384 233.998 127.957 233.911L128.474 233.835C131.689 233.375 133.795 233.334 134.95 233.77L135.292 233.902C138.413 235.137 139.523 236.413 139.242 239.407C139.003 241.944 135.52 243.869 133.045 244.056C131.199 244.196 128.974 243.614 126.352 242.344L126.088 242.215C122.809 240.621 120.198 238.663 118.265 236.335C118.011 236.029 117.848 235.62 117.681 234.993L117.643 234.845C117.581 234.602 117.519 234.332 117.447 233.993L117.031 231.952L116.966 231.655C116.282 228.59 114.3 222.934 111.297 216.215L110.839 215.204C110.557 214.589 106.529 208.062 106.229 206.532C105.105 200.813 109.701 197.98 109.701 197.98C109.701 197.98 107.317 203.01 107.989 205.482C108.511 207.405 112.919 214.02 114.487 219.091C116.109 224.339 117.808 229.938 120.288 234.517C122.161 237.973 123.502 239.539 126.692 240.172Z" fill="#00160A"/>
<path fill-rule="evenodd" clip-rule="evenodd" d="M131.781 238.996C131.884 238.649 132.249 238.452 132.596 238.555C133.677 238.878 134.441 239.235 134.908 239.659C135.35 240.061 135.787 240.678 136.235 241.515C136.406 241.834 136.285 242.232 135.966 242.403C135.646 242.573 135.249 242.453 135.078 242.134C134.695 241.417 134.339 240.914 134.026 240.629C133.737 240.367 133.13 240.083 132.221 239.812C131.874 239.709 131.677 239.343 131.781 238.996Z" fill="#00160A"/>
<path fill-rule="evenodd" clip-rule="evenodd" d="M133.612 236.973C133.726 236.629 134.098 236.443 134.441 236.558C135.366 236.865 136.054 237.216 136.511 237.632C136.964 238.043 137.399 238.708 137.839 239.636C137.994 239.963 137.855 240.354 137.528 240.509C137.201 240.665 136.809 240.525 136.654 240.198C136.281 239.412 135.931 238.877 135.629 238.602C135.33 238.331 134.794 238.057 134.027 237.802C133.683 237.687 133.497 237.316 133.612 236.973Z" fill="#00160A"/>
<path fill-rule="evenodd" clip-rule="evenodd" d="M127.046 194.707C129.353 195.635 133.89 200.78 133.188 203.669C132.463 206.657 131.398 207.85 129.704 209.831L129.527 210.035C129.01 210.623 126.877 212.79 126.792 212.881L126.59 213.104C124.689 215.25 123.912 217.622 125.458 221.994C126.591 225.197 128.455 228.838 131.027 232.309C131.367 232.768 132.211 234.113 131.753 234.452C131.295 234.791 130.211 233.695 129.872 233.237C127.183 229.608 125.234 226.091 124.028 222.683C122.206 217.533 122.646 215.411 125.16 212.639L125.32 212.466C125.59 212.186 127.438 210.306 127.928 209.76L127.977 209.704C129.556 207.907 130.598 206.004 131.266 203.253C131.728 201.352 129.786 197.976 125.684 195.237C122.96 193.418 124.739 193.779 127.046 194.707Z" fill="#00160A"/>
</svg>
