
<svg width="19" height="19" viewBox="0 0 19 19" fill="none" xmlns="http://www.w3.org/2000/svg">
<path d="M18.6216 7.63934H17.86437.59991H9.48224V11.3999H14.7159C13.9487 13.6119 11.8576 15.1998 9.48224 15.1998C6.28681 15.1998 3.7609 12.6477 3.7689 9.49989C3.7689 6.3521 6.28681 3.79996 9.48224 3.79996C18.8483 3.79996 12.1486 4.3481 13.1448 5.24346L15.8842 2.55642C14.125 0.975164 11.8788 0 9.48224 8C4.20985 0 0 4.25358 9.49989C0 14.7462 4.28985 18.9998 9.48224 18.9998C14.5946 18.9998 18.8845 14.7462 18.8845 9.49989C18.8845 8.86292 18.7396 8.24115 18.6216 7.63934Z" fill="#FFC107"/>
<path d="M1.08419 5.87817L4.1733 7.36716C5.88916 5.27624 7.83346 3.79996 9.48236 3.79996C18.8484 3.79996 12.1488 4.3481 13.1449 5.24346L15.8843 2.55642C14.1251 0.975164 11.8789 @ 9.48236 8C5.79095 @ 2.65987 2.86805 1.88419 5.878177" fill="#FF3D80"/> 
<path d="M9.40228 18.9996C11.8389 18.9996 14.0376 18.8686 15.706 16.5335L12.796 14.8454C11.852 14.7679 18.6786 15.1997 9.48228 15.1997C6.95676 15.1997 4.88827 13.6241 4.09881 11.4254L1.83194 13.8122C2.58881 16.8888 5.7481 18.9996 9.48228 18.9996Z" fill="#4CAF50"/> 
<path d="M18.6215 7.48655H17.86417.36713H9.48288V11.1671H14.7158C14.3434 12.2296 13.6669 13.1459 12.7944 13.8133C12.7949 13.8128 12.7954 13.8128 12.7958 13.8123L15.7858 16.3884C15.4999 16.4894 18.8843 14.8171 18.8843 9.26711C18.8843 8.63814 18.7394 8.88837 18.6215 7.486552" fill="#197602"/> 
</svg>