<svg width="19" height="19" viewBox="0 0 19 19" fill="none" xmlns="http://www.w3.org/2000/svg">
<path d="M16.2856 0.691895H3.61704C2.11775 0.691895 0.902344 1.91993 0.902344 3.43478V16.2349C0.902344 17.7498 2.11775 18.9778 3.61704 18.9778H16.2856C17.7849 18.9778 19.0003 17.7498 19.0003 16.2349V3.43478C19.0003 1.91993 17.7849 0.691895 16.2856 0.691895Z" fill="#1877F2"/>
<path d="M13.4719 12.4776L13.8748 9.83468H11.3651V8.12037C11.3651 7.39893 11.7151 6.69178 12.8391 6.69178H13.9809V4.44176C13.9809 4.44176 12.9452 4.26318 11.9555 4.26318C9.88762 4.26318 8.53734 5.52748 8.53734 7.82037V9.83468H6.23975V12.4776H8.53734V18.9776H11.3651V12.4776H13.4719Z" fill="white"/>
</svg>
