<svg width="280" height="243" viewBox="0 0 280 243" fill="none" xmlns="http://www.w3.org/2000/svg">
<path d="M217.265 15.9318C214.307 7.68827 211.221 -0.912678 189.444 4.57415C177.751 7.52009 167.832 18.3644 159.623 34.5587C153.437 47.4429 148.129 64.1409 143.802 84.1896C134.96 125.157 130.739 178.251 131.651 229.942L128.04 230.006L128.014 228.447C127.429 191.121 129.503 153.136 134.051 119.497C116.938 101.21 97.3445 86.712 82.9884 81.788C48.9174 73.7784 39.6127 93.562 39.5905 111.325C39.5862 114.573 40.684 117.289 41.7893 120.026C42.9325 122.856 44.0841 125.707 44.0358 129.19C44.0038 131.499 38.7729 136.198 31.9731 142.307C18.6045 154.316 -0.827347 171.772 1.26162 187.227C3.19208 201.509 16.5378 212.519 28.8792 218.509C30.0875 219.096 31.3974 220.173 32.9738 221.468C34.0944 222.39 35.3502 223.422 36.7994 224.467L36.9108 224.547C38.0495 225.354 39.9314 226.498 42.557 227.977L43.3667 228.431C80.5107 249.139 124.133 236.14 137.737 231.307L138.531 231.022L234.523 231.283L234.511 231.208C234.487 231.051 234.448 230.818 234.397 230.517C233.562 225.616 229.643 202.591 238.794 193.46C267.372 164.948 299.416 82.6597 257.887 47.4157C248.71 39.6274 239.563 34.8426 232.538 31.1686C228.271 28.9371 224.787 27.115 222.555 25.2776C219.806 23.0151 218.547 19.5072 217.265 15.9318Z" fill="#2C2E5C"/>
<path d="M46.5852 216.725L3.4375 240.224H248.908L206.949 216.725H46.5852Z" fill="#171A3F"/>
<path d="M111.604 173.032L103.452 189.553L119.088 212.717H134.855L149.555 189.161L140.455 173.032H111.604Z" fill="#3A486A"/>
<path d="M103.452 189.552C103.452 189.552 68.3843 192.934 59.5873 204.392C50.7903 215.849 54.9291 228.289 63.4977 228.289C79.2706 228.289 112.643 229.493 128.433 228.289L129.375 201.465L103.452 189.552Z" fill="#3A486A"/>
<path d="M148.647 188.982C148.647 188.982 185.371 192.935 194.168 204.392C202.965 215.85 197.896 223.44 190.257 228.29C179.508 235.119 140.764 233.986 120.669 225.691L124.386 201.465L148.647 188.982Z" fill="#3A486A"/>
<path d="M150.263 211.485L147.78 203.481L150.874 201.765C150.874 201.765 150.446 197.029 154.231 196.118C158.015 195.206 162.525 198.254 166.921 195.797C170.974 193.533 175.935 191.446 180.564 194.58C181.249 195.042 181.569 196.061 181.335 196.986L181.318 197.058C181.084 197.991 180.353 198.567 179.571 198.468C177.938 198.261 175.027 198.304 172.15 200.476C167.189 204.236 150.263 211.485 150.263 211.485Z" fill="#FEBBA0"/>
<path d="M179.154 211.94C179.154 211.94 154.647 206.507 103.024 205.667L98.0405 214.098C98.0405 214.098 110.885 223.255 122.941 226.566C134.998 229.878 176.62 240.303 195.207 224.245L179.154 211.94Z" fill="#3A486A"/>
<path d="M122.941 226.574C110.582 223.013 97.6523 213.884 97.6523 213.884L98.423 212.253" stroke="#6E758F" stroke-width="0.700637" stroke-miterlimit="10" stroke-linecap="round"/>
<path d="M103.024 205.666C103.024 205.666 159.739 204.05 174.873 215.002" stroke="#6E758F" stroke-width="0.700637" stroke-miterlimit="10" stroke-linecap="round"/>
<path d="M75.1831 210.252C75.1831 210.252 85.5385 204.2 92.6172 208.166" stroke="#6E758F" stroke-width="0.700637" stroke-miterlimit="10" stroke-linecap="round"/>
<path d="M99.2338 212.702L103.019 205.51L99.2338 202.954C99.2338 202.954 97.9094 198.817 94.1988 197.535C90.4825 196.26 87.8394 198.318 83.6094 195.441C79.7104 192.785 74.8923 190.229 70.0857 192.899C69.3778 193.291 68.9896 194.273 69.1666 195.22L69.178 195.292C69.355 196.246 70.0457 196.887 70.8278 196.865C72.4662 196.816 75.3718 197.143 78.1006 199.593C82.8102 203.823 99.2338 212.702 99.2338 212.702Z" fill="#FEBBA0"/>
<path d="M131.818 205.923L147.323 204.021" stroke="#6E758F" stroke-width="0.700637" stroke-miterlimit="10" stroke-linecap="round"/>
<path d="M112.101 197.542L120.749 205.353" stroke="#6E758F" stroke-width="0.700637" stroke-miterlimit="10" stroke-linecap="round"/>
<path d="M109.869 91.2338C110.234 95.6915 113.345 98.9386 116.816 98.4971C120.287 98.0556 122.804 94.0822 122.439 89.6316C122.074 85.1739 118.962 81.9268 115.492 82.3683C112.027 82.8027 109.509 86.7761 109.869 91.2338Z" fill="#3F4553"/>
<path d="M122.833 94.4741C122.833 94.4741 111.804 92.3948 110.068 79.4134C108.539 67.9417 114.71 58.7486 121.474 57.1606C121.48 57.1606 137.732 88.4071 122.833 94.4741Z" fill="#3F4553"/>
<path d="M123.085 58.3921C122.274 58.8906 121.503 59.5457 120.801 60.3931C114.516 67.9341 118.495 82.5747 124.124 89.1828C127.241 92.8359 131.796 94.5378 135.775 92.6721C141.592 89.9448 143.413 81.7273 142.231 74.407C141.352 68.9524 138.926 63.804 135.347 60.5996C131.768 57.4023 126.932 56.0493 123.085 58.3921Z" fill="#FDBCA0"/>
<path d="M122.04 84.7676C120.938 86.1277 119.02 86.6832 117.547 86.0352C116.074 85.3872 114.864 83.6568 114.482 81.6487C114.139 79.8471 114.51 77.7963 115.572 76.6925C116.634 75.5888 118.546 75.66 119.454 77.0913L122.04 84.7676Z" fill="#FDBCA0"/>
<path d="M120.43 79.9829L121.589 105.86C121.743 110.645 124.854 114.448 128.69 114.541C133.12 114.655 136.596 109.827 136.031 104.343L133.691 80.3176L120.43 79.9829Z" fill="#FDBCA0"/>
<path d="M135.267 96.5383L134.976 92.9921C134.976 92.9921 129.267 95.1782 124.124 89.1753C124.124 89.1824 127.086 95.9259 135.267 96.5383Z" fill="#DF8370"/>
<path d="M118.163 76.0732C125.596 75.5961 132.378 69.3725 136.123 61.3544C136.123 61.3544 129.284 53.2579 119.288 57.9933C111.005 61.9098 118.163 76.0732 118.163 76.0732Z" fill="#3F4553"/>
<path d="M118.98 82.0265C118.124 82.1333 117.376 81.5565 117.307 80.7376C117.256 80.1181 117.604 79.5413 118.141 79.2422" stroke="#444359" stroke-width="0.490292" stroke-miterlimit="10" stroke-linecap="round"/>
<path d="M136.836 80.0043C137.007 79.3563 137.304 78.8436 137.635 78.3594L137.795 78.9861C137.419 78.808 137.213 78.5374 137.002 78.274C136.802 77.9963 136.625 77.7185 136.465 77.4195C136.146 76.8284 135.877 76.2018 135.683 75.5396C136.083 76.0451 136.448 76.565 136.831 77.0634C137.025 77.3055 137.207 77.5548 137.407 77.7684C137.595 77.9749 137.818 78.1885 137.972 78.2384L138.435 78.3737L138.132 78.865C137.824 79.3706 137.481 79.8406 137.007 80.1824C136.95 80.2251 136.882 80.1966 136.848 80.1325C136.831 80.0827 136.831 80.04 136.836 80.0043Z" fill="#444359"/>
<path d="M138.509 82.2684C138.281 82.8523 137.892 83.3579 137.39 83.6641C136.893 83.9845 136.277 84.0486 135.729 83.8492C135.169 83.6569 134.736 83.2012 134.364 82.7312C134.199 82.4749 134.033 82.2114 133.896 81.9408C133.776 81.6489 133.651 81.364 133.56 81.0649C133.771 81.2643 133.953 81.478 134.136 81.6916L134.701 82.2755C135.101 82.6031 135.478 82.9591 135.912 83.0873C136.328 83.2511 136.774 83.2439 137.213 83.0944C137.647 82.9377 138.081 82.6315 138.509 82.2684Z" fill="#444359"/>
<path d="M132.532 72.9618C132.755 73.7878 132.88 74.6423 132.835 75.5609C132.806 76.0095 132.72 76.5009 132.452 76.9352C132.178 77.3767 131.716 77.569 131.31 77.5548C130.894 77.5476 130.483 77.3198 130.203 76.9993C129.912 76.6789 129.683 76.3086 129.512 75.917C129.17 75.1265 128.953 74.3005 128.844 73.4318C128.827 73.2965 128.901 73.1683 129.01 73.1398C129.113 73.1184 129.204 73.1968 129.232 73.3107L129.238 73.3249C129.432 74.094 129.689 74.8702 130.02 75.5395C130.351 76.1875 130.802 76.7857 131.333 76.7643C131.596 76.7786 131.841 76.6931 131.99 76.4581C132.155 76.2303 132.235 75.86 132.281 75.4826C132.366 74.7206 132.309 73.8804 132.207 73.0757V73.0615C132.19 72.9475 132.258 72.8336 132.349 72.8194C132.424 72.8051 132.503 72.8692 132.532 72.9618Z" fill="#444359"/>
<path d="M140.821 71.3451C141.01 72.043 141.112 72.7551 141.101 73.517C141.095 73.8944 141.038 74.3074 140.844 74.6991C140.656 75.1121 140.233 75.3684 139.868 75.3471C139.485 75.34 139.137 75.0907 138.914 74.7988C138.686 74.4997 138.509 74.1792 138.378 73.8374C138.121 73.1538 137.961 72.456 137.881 71.7225C137.864 71.5872 137.944 71.4591 138.058 71.4377C138.155 71.4235 138.247 71.4947 138.275 71.6086L138.281 71.6228C138.446 72.2637 138.646 72.9189 138.903 73.4885C139.16 74.044 139.508 74.578 139.891 74.5495C140.085 74.5567 140.239 74.4854 140.342 74.2861C140.456 74.0867 140.513 73.7805 140.547 73.46C140.604 72.8192 140.559 72.1142 140.496 71.4448V71.4306C140.484 71.3167 140.553 71.2098 140.644 71.1885C140.718 71.1885 140.798 71.2526 140.821 71.3451Z" fill="#444359"/>
<path d="M146.986 108.211C146.935 103.867 135.643 100.392 135.643 100.392C134.935 101.368 133.719 103.013 128.599 103.013C123.701 103.013 121.743 101.432 120.978 100.392H116.131C115.052 100.392 114.065 101.161 113.614 102.386C103.903 128.883 109.361 158.477 111.599 173.025C111.804 174.364 132.07 173.46 141.209 174.364C143.184 174.57 147.18 123.998 146.986 108.211Z" fill="white"/>
<path d="M123.404 145.681C124.409 135.555 125.636 129.481 126.578 131.475C127.411 133.241 126.949 142.099 125.699 150.644C125.705 150.644 122.976 150.017 123.404 145.681Z" fill="#FEBBA0"/>
<path d="M130.037 145.681C129.032 135.555 127.805 129.481 126.863 131.475C126.03 133.241 126.492 142.099 127.742 150.644C127.737 150.644 130.465 150.017 130.037 145.681Z" fill="#FEBBA0"/>
<path d="M163.501 143.167H150.743L152.769 159.332L129.615 145.24C129.535 144.157 129.427 142.819 129.295 141.401C128.422 141.401 127.543 141.401 126.669 141.387C126.675 142.619 126.692 143.452 126.692 143.452C126.692 143.452 126.241 150.886 127.274 153.365C129.238 158.079 149.327 173.26 154.904 175.062C155.252 175.176 155.601 175.261 155.949 175.318C161.332 176.265 164.9 172.498 164.86 165.719L163.501 143.167Z" fill="#FEBBA0"/>
<path d="M123.918 141.33C123.718 142.925 123.541 144.463 123.404 145.681L100.918 158.669L101.865 143.174H89.1066L87.7537 165.74C87.7194 172.52 91.2873 176.279 96.6648 175.339C97.013 175.275 97.3613 175.19 97.7095 175.083C103.287 173.282 121.971 160.685 125.961 153.336C127.143 151.164 126.584 143.851 126.584 143.851C126.584 143.851 126.584 142.84 126.561 141.401C125.682 141.38 124.803 141.359 123.918 141.33Z" fill="#FEBBA0"/>
<path d="M105.13 152.011C110.12 133.604 110.08 133.589 116.205 100.399C112.106 100.748 111.684 99.9147 108.453 102.008C98.7597 108.289 89.6316 128.918 86.9429 152.011H105.13Z" fill="white"/>
<path d="M149.555 150.195C146.621 137.157 135.643 100.399 135.643 100.399C146.621 99.9361 161.6 117.788 165.185 147.81L149.555 150.195Z" fill="white"/>
<path d="M146.992 121.406L144.68 145.104" stroke="black" stroke-width="0.7" stroke-miterlimit="10" stroke-linecap="round"/>
<path d="M107.231 125.294L109.07 150.644" stroke="black" stroke-width="0.7" stroke-miterlimit="10" stroke-linecap="round"/>
<path fill-rule="evenodd" clip-rule="evenodd" d="M35.7029 226.69C35.7029 226.69 12.9833 217.18 12.9856 203.945C12.9862 200.062 15.4147 200.435 20.2716 205.065C20.8 205.568 21.5564 206.341 22.5419 207.383C23.1451 208.022 9.51201 191.461 16.3834 188.365C23.0819 185.347 24.6372 201.022 24.9871 200.806C25.3763 200.565 25.2636 195.822 26.8142 193.726C27.6493 192.596 30.1053 192.355 31.9634 193.727C41.724 200.931 35.7029 226.69 35.7029 226.69Z" fill="white"/>
<path d="M206.747 90.7987L207.018 90.3012C209.135 86.4683 210.979 84.5653 213.129 85.1865C213.303 85.2366 213.475 85.3058 213.642 85.3925C214.959 86.0755 215.275 87.3456 214.906 89.079L214.881 89.1858L214.943 89.0965C215.568 88.21 216.164 87.5253 216.781 87.0171L216.913 86.9108C218.286 85.8423 219.743 85.7435 221.061 86.8568C223.166 88.6345 222.927 91.6158 221.208 93.4501L221.112 93.5491C220.873 93.7906 220.73 94.3134 220.569 95.5436L220.43 96.6217C220.263 97.8653 220.151 98.4108 219.888 99.2535C219.392 100.845 218.58 102.172 217.314 103.256C215.724 104.619 213.04 104.428 209.261 102.874C208.855 102.707 208.661 102.243 208.827 101.837C208.995 101.43 203.526 96.6064 203.36 96.8179L203.307 96.8794C203.003 97.1956 202.5 97.2059 202.183 96.9013L201.415 96.1612C200.953 95.7147 201.184 94.9329 201.814 94.8092C202.969 94.5823 203.866 94.3327 204.496 94.0655C205.025 93.8411 205.314 93.627 205.382 93.4876C205.382 93.4876 206.531 91.2006 206.747 90.7987Z" fill="white"/>
<path fill-rule="evenodd" clip-rule="evenodd" d="M201.073 94.8891C199.733 94.7882 198.945 95.8068 198.944 97.0397C198.944 101.309 205.917 107.147 210.461 107.148C211.794 107.148 212.884 106.196 212.497 104.74C212.351 104.19 212.016 103.703 211.465 103.103L211.344 102.972C210.725 102.315 210.086 101.728 208.652 100.494L206.454 98.6103C205.916 98.1437 205.058 97.3994 204.799 97.1779L204.487 96.9126C203.887 96.4063 203.423 96.0372 203.008 95.744C202.275 95.2257 201.707 94.9367 201.073 94.8891ZM200.534 97.0399C200.535 95.371 202.926 97.6787 205.803 100.149L207.715 101.785C210.055 103.803 212.912 105.903 211.465 106.056C206.881 106.544 200.534 100.465 200.534 97.0399Z" fill="#00160A"/>
<path fill-rule="evenodd" clip-rule="evenodd" d="M201.442 83.7022C201.77 83.4111 203.412 82.2653 202.564 83.7699C201.716 85.2741 196.816 87.1817 201.715 94.7913C201.901 95.0809 201.674 95.6614 201.265 95.8218C200.856 95.9823 200.395 95.7809 200.235 95.3722C198.997 92.2168 198.424 89.9326 198.534 88.4479C198.65 86.8744 199.638 85.3006 201.442 83.7022Z" fill="#00160A"/>
<path fill-rule="evenodd" clip-rule="evenodd" d="M195.319 86.3512C195.406 85.9208 196.255 84.8553 196.255 85.728C196.255 86.6006 195.006 88.8138 196.763 91.3082C198.519 93.8027 201.542 95.4948 201.283 95.8493C201.025 96.2043 200.528 96.2822 200.173 96.0236C197.629 94.1705 196.085 92.7206 195.503 91.5841C194.897 90.3986 194.855 88.6636 195.319 86.3512Z" fill="#00160A"/>
<path fill-rule="evenodd" clip-rule="evenodd" d="M206.747 90.7987L207.018 90.3012C209.135 86.4683 210.979 84.5653 213.129 85.1865C213.303 85.2366 213.475 85.3058 213.642 85.3925C214.959 86.0755 215.275 87.3456 214.906 89.079L214.881 89.1858L214.943 89.0965C215.568 88.21 216.164 87.5253 216.781 87.0171L216.913 86.9108C218.286 85.8423 219.743 85.7435 221.061 86.8568C223.166 88.6345 222.927 91.6158 221.208 93.4501L221.112 93.5491C220.873 93.7906 220.73 94.3134 220.569 95.5436L220.43 96.6217C220.263 97.8653 220.151 98.4108 219.888 99.2535C219.392 100.845 218.58 102.172 217.314 103.256C215.724 104.619 213.04 104.428 209.261 102.874C208.855 102.707 208.661 102.243 208.827 101.837C208.995 101.43 214.718 104.757 216.911 102.172C219.105 99.5867 219.342 94.2388 219.975 92.618L220.128 92.3352C221.341 91.1092 221.382 89.2091 220.035 88.0715C219.34 87.4846 218.71 87.5273 217.89 88.1655C217.143 88.747 216.364 89.7449 215.466 91.1975L215.203 91.6304C214.762 92.3756 213.877 93.9205 213.76 94.1166L213.598 94.3839C213.053 95.2735 212.359 95.8307 212.256 95.8549C212.153 95.8787 212.007 95.7961 211.97 95.0431C211.958 94.7959 212.021 94.5467 212.153 94.2076L212.206 94.0766C212.365 93.6885 213.244 91.8639 213.304 91.7333C213.571 91.1585 213.785 90.6579 213.963 90.1853C214.678 88.2816 213.614 87.1688 212.91 86.8038C212.835 86.7646 212.76 86.7347 212.688 86.714C211.596 86.3985 210.076 88.0192 208.302 91.2665L207.918 91.9848C207.633 92.5266 207.355 93.0844 206.808 94.1918C206.41 94.9968 205.349 95.5741 203.58 96.0392L203.483 96.064L203.492 96.0872C203.57 96.3313 203.526 96.6064 203.36 96.8179L203.307 96.8794C203.003 97.1956 202.5 97.2059 202.183 96.9013L201.415 96.1612C200.953 95.7147 201.184 94.9329 201.814 94.8092C202.969 94.5823 203.866 94.3327 204.496 94.0655C205.025 93.8411 205.314 93.627 205.382 93.4876L206.126 91.9927C206.354 91.5407 206.531 91.2006 206.747 90.7987Z" fill="#00160A"/>
<path d="M217.177 94.7134C218.175 94.7136 218.984 94.0507 218.984 93.2329C218.984 92.4151 218.175 91.7519 217.178 91.7518C216.18 91.7516 215.371 92.4145 215.371 93.2323C215.371 94.0501 216.18 94.7133 217.177 94.7134Z" fill="#FFB61D"/>
<path d="M212.018 90.584C213.015 90.5842 213.824 89.9214 213.824 89.1035C213.824 88.2857 213.016 87.6225 212.018 87.6224C211.021 87.6222 210.212 88.2851 210.212 89.1029C210.212 89.9207 211.02 90.5839 212.018 90.584Z" fill="#FFB61D"/>
</svg>
