<svg width="91" height="125" viewBox="0 0 91 125" fill="none" xmlns="http://www.w3.org/2000/svg">
<path d="M70.8394 7.12007C64.7997 3.14285 57.5412 1.02084 49.8333 0.789488C42.1359 0.571778 33.9212 2.32049 26.2021 6.45322C16.675 11.5246 10.0573 18.162 5.87395 24.6869C1.66051 31.2127 1.14645 36.4595 1.14645 36.4595C0.593499 37.846 0.685771 39.3829 1.40008 40.66C2.1188 41.937 3.38092 42.8211 4.84995 43.0708L16.5899 45.0742C18.9825 45.4821 21.3747 44.138 22.2673 41.8854C22.2673 41.8854 22.3296 39.5543 24.5743 36.0767C26.843 32.6012 30.2464 28.958 36.4574 25.6082C41.8774 22.6917 47.6603 22.1231 52.3263 23.0788C54.6424 23.5498 56.6379 24.3976 58.1017 25.3667C59.5772 26.3439 60.4902 27.3999 60.9748 28.3138C62.6089 31.4037 63.071 33.7495 63.0996 35.9438C63.1066 37.59 62.829 39.2028 62.278 40.918C61.4593 43.483 59.9664 46.2473 58.1256 49.0392C56.2918 51.8493 54.1645 54.5964 52.1475 57.6198C49.8499 61.0791 47.7693 65.395 47.2469 70.4804C46.9783 73 47.1261 75.6388 47.6948 78.2014C48.2562 80.7705 49.2227 83.2622 50.5001 85.6481C51.863 88.1937 52.9819 90.2835 52.9819 90.2835C54.2665 92.6829 57.3131 93.5548 59.7865 92.2305L70.5759 86.454C73.0492 85.1298 74.0129 82.1108 72.7283 79.7114C72.7283 79.7114 71.6094 77.6216 70.2465 75.0761C69.7543 74.1568 69.5448 73.5063 69.4471 73.0745C69.3244 72.4167 69.3491 72.2226 69.4576 71.7244C69.5812 71.2401 69.916 70.4209 70.7058 69.2328C71.8524 67.4825 73.816 64.8961 75.936 61.7738C79.0947 57.0713 82.7577 51.0233 84.4749 43.36C85.3245 39.5395 85.6274 35.3245 85.0574 30.9611C84.4993 26.5913 83.0635 22.1122 80.7193 17.7428C78.3442 13.3165 74.8547 9.77309 70.8394 7.12007Z" fill="white" fill-opacity="0.16"/>
<path d="M70.7186 99.6766C63.9923 103.278 61.3723 111.49 64.8651 118.014C68.3568 124.536 76.6433 126.907 83.3693 123.306C90.0919 119.706 92.7107 111.497 89.219 104.975C85.7262 98.4513 77.4412 96.0774 70.7186 99.6766Z" fill="white" fill-opacity="0.16"/>
</svg>
