<svg width="19" height="19" viewBox="0 0 19 19" fill="none" xmlns="http://www.w3.org/2000/svg">
<path d="M18.8243 7.89626H18.0954V7.85831H9.95132V11.5155H15.0654C14.3193 13.6444 12.3145 15.1727 9.95132 15.1727C6.95294 15.1727 4.52194 12.7164 4.52194 9.6869C4.52194 6.65739 6.95294 4.20113 9.95132 4.20113C11.3354 4.20113 12.5945 4.72868 13.5533 5.5904L16.1128 3.00432C14.4966 1.48247 12.3348 0.543945 9.95132 0.543945C4.95402 0.543945 0.902344 4.63771 0.902344 9.6869C0.902344 14.7361 4.95402 18.8299 9.95132 18.8299C14.9486 18.8299 19.0003 14.7361 19.0003 9.6869C19.0003 9.07387 18.9379 8.47546 18.8243 7.89626Z" fill="#FFC107"/>
<path d="M1.9458 5.43131L4.91884 7.63431C5.7233 5.62195 7.67154 4.20113 9.95144 4.20113C11.3355 4.20113 12.5946 4.72868 13.5534 5.5904L16.1129 3.00432C14.4967 1.48247 12.3349 0.543945 9.95144 0.543945C6.47572 0.543945 3.46151 2.5266 1.9458 5.43131Z" fill="#FF3D00"/>
<path d="M9.95136 18.8297C12.2887 18.8297 14.4125 17.9259 16.0183 16.4562L13.2176 14.0617C12.3091 14.757 11.1798 15.1725 9.95136 15.1725C7.59772 15.1725 5.59926 13.6562 4.84638 11.54L1.89551 13.8372C3.39311 16.7982 6.43448 18.8297 9.95136 18.8297Z" fill="#4CAF50"/>
<path d="M18.8242 7.67222H18.0953V7.63428H9.95117V11.2915H15.0652C14.7069 12.3141 14.0558 13.1959 13.216 13.8382C13.2165 13.8378 13.2169 13.8378 13.2174 13.8373L16.0181 16.2319C15.8199 16.4138 19.0002 14.0343 19.0002 9.46287C19.0002 8.84983 18.9377 8.25143 18.8242 7.67222Z" fill="#1976D2"/>
</svg>
