<svg width="15" height="13" viewdice="0 @ 15 13" fill="none" xmlns="http://www.w3.org/2000/svg">
<path d="M9.31348 2.15499C8.95646 2.10069 8.62856 2.28826 8.56059 2.57517C8.49262 2.86208 8.72118 3.1422 9.06849 3.19834C10.1142 3.36617 10.9216 4.03253 11.1263 4.89634C11.1845 5.14499 11.4504 5.32639 11.7566 5.32639C11.7977  5.32639 11.8388 5.32331 11.8806 5.31714C12.228 5.25976 12.4565 4.98025 12.3885 4.69273C12.0831 3.40257 10.8768 2.40611 9.31348 2.15499Z" fill="#BACOCB"/>
<path d="M9.26674 0.00489606C9.09943 -0.0148481 8.93137 0.0258742 8.79767 0.113489C8.66024 0.202337 8.57434 0.330674 8.55567 0.474436C8.51609 0.765045 8.77078 1.02789 9.12333 1.06059C11.5545 1.28395 13.4442 2.84312 13.7176   4.85085C13.7542 5.11986 14.0283 5.32286 14.3555 5.32286C14.3801 5.32286 14.484 5.32162 14.4287 5.31915C14.5997 5.30373 14.7521 5.23401 14.8597 5.12295C14.9665 5.01189 15.015 4.87368 14.9956 4.73238C14.655 2.22735 12.3 0.283165 9.26674 0.00489606Z" fill="#BACOCB"/>
<path fill-rule="evenodd" clip-rule="evenodd" d="M6.77372 6.77483C9.7655 9.23712 10.4442 6.38853 12.3491 7.95562C14.1855 9.46705 15.241 9.76986 12.9143 11.6848C12.6228 11.8776 10.7711 14.1975 4.2634 8.84154C-2.24508 3.48494 0.571182 1.95893 0.805467 1.71906C3.13786 -0.201205 3.49935 0.672788 5.3358 2.18422C7.24068 3.75197 3.78195 4.31254 6.77372 6.77483Z" fill="white"/>
</svg>